<svg width="645" height="217" viewBox="0 0 645 217" fill="none" xmlns="http://www.w3.org/2000/svg">
<mask id="path-1-outside-1_3_13" maskUnits="userSpaceOnUse" x="0.0539551" y="-0.0957031" width="645" height="217" fill="black">
<rect fill="white" x="0.0539551" y="-0.0957031" width="645" height="217"/>
<path d="M606.782 38.6351V178.088H38.8291V38.6351H606.782Z"/>
</mask>
<path d="M606.782 38.6351V178.088H38.8291V38.6351H606.782Z" fill="#688461"/>
<path d="M606.782 38.6351H644.782V0.635071H606.782V38.6351ZM606.782 178.088V216.088H644.782V178.088H606.782ZM38.8291 178.088H0.829094V216.088H38.8291V178.088ZM38.8291 38.6351V0.635071H0.829094V38.6351H38.8291ZM606.782 38.6351H568.782V178.088H606.782H644.782V38.6351H606.782ZM606.782 178.088V140.088H38.8291V178.088V216.088H606.782V178.088ZM38.8291 178.088H76.8291V38.6351H38.8291H0.829094V178.088H38.8291ZM38.8291 38.6351V76.6351H606.782V38.6351V0.635071H38.8291V38.6351Z" fill="#17330F" mask="url(#path-1-outside-1_3_13)"/>
</svg>
