<svg width="761" height="761" viewBox="0 0 761 761" fill="none" xmlns="http://www.w3.org/2000/svg">
<mask id="path-1-outside-1_3_12" maskUnits="userSpaceOnUse" x="-0.0908203" y="0.0332031" width="761" height="761" fill="black">
<rect fill="white" x="-0.0908203" y="0.0332031" width="761" height="761"/>
<path d="M322.769 722.484V38.4454H438.848V722.484H322.769ZM38.7897 438.504V322.425H722.828V438.504H38.7897Z"/>
</mask>
<path d="M322.769 722.484V38.4454H438.848V722.484H322.769ZM38.7897 438.504V322.425H722.828V438.504H38.7897Z" fill="#914035"/>
<path d="M322.769 722.484H284.769V760.484H322.769V722.484ZM322.769 38.4454V0.445404H284.769V38.4454H322.769ZM438.848 38.4454H476.848V0.445404H438.848V38.4454ZM438.848 722.484V760.484H476.848V722.484H438.848ZM38.7897 438.504H0.78968V476.504H38.7897V438.504ZM38.7897 322.425V284.425H0.78968V322.425H38.7897ZM722.828 322.425H760.828V284.425H722.828V322.425ZM722.828 438.504V476.504H760.828V438.504H722.828ZM322.769 722.484H360.769V38.4454H322.769H284.769V722.484H322.769ZM322.769 38.4454V76.4454H438.848V38.4454V0.445404H322.769V38.4454ZM438.848 38.4454H400.848V722.484H438.848H476.848V38.4454H438.848ZM438.848 722.484V684.484H322.769V722.484V760.484H438.848V722.484ZM38.7897 438.504H76.7897V322.425H38.7897H0.78968V438.504H38.7897ZM38.7897 322.425V360.425H722.828V322.425V284.425H38.7897V322.425ZM722.828 322.425H684.828V438.504H722.828H760.828V322.425H722.828ZM722.828 438.504V400.504H38.7897V438.504V476.504H722.828V438.504Z" fill="#5C2720" mask="url(#path-1-outside-1_3_12)"/>
</svg>
