<?xml version="1.0" standalone="no"?>
<!DOCTYPE svg PUBLIC "-//W3C//DTD SVG 20010904//EN"
 "http://www.w3.org/TR/2001/REC-SVG-20010904/DTD/svg10.dtd">
<svg version="1.0" xmlns="http://www.w3.org/2000/svg"
 width="3754.000000pt" height="3847.000000pt" viewBox="0 0 3754.000000 3847.000000"
 preserveAspectRatio="xMidYMid meet">

<g transform="translate(0.000000,3847.000000) scale(0.100000,-0.100000)"
fill="#914035" stroke="none">
<path d="M18853 38463 c-7 -2 -13 -10 -13 -17 0 -16 -107 -25 -375 -32 -228
-5 -539 -20 -730 -35 -297 -23 -364 -29 -445 -38 -47 -6 -112 -13 -145 -16
-33 -3 -82 -10 -108 -15 -26 -6 -74 -10 -105 -10 -31 0 -90 -7 -132 -14 -67
-13 -232 -36 -410 -56 -74 -9 -135 -19 -415 -67 -110 -19 -225 -38 -255 -43
-30 -4 -68 -13 -83 -19 -16 -6 -42 -11 -58 -11 -16 0 -64 -9 -107 -19 -42 -10
-115 -26 -162 -36 -47 -9 -123 -25 -170 -35 -47 -11 -139 -31 -205 -45 -66
-14 -140 -33 -165 -41 -25 -8 -55 -14 -67 -14 -12 0 -46 -9 -75 -19 -29 -11
-75 -23 -103 -27 -27 -3 -61 -12 -75 -19 -14 -7 -44 -15 -67 -18 -23 -3 -57
-12 -75 -22 -18 -9 -55 -20 -83 -26 -27 -5 -88 -20 -135 -35 -194 -58 -216
-64 -233 -64 -9 0 -34 -9 -54 -20 -21 -11 -54 -20 -73 -20 -19 0 -48 -9 -65
-20 -16 -11 -41 -20 -55 -20 -14 0 -38 -7 -53 -15 -15 -8 -56 -22 -90 -31 -34
-9 -73 -23 -87 -30 -14 -7 -55 -20 -90 -29 -36 -9 -72 -23 -80 -30 -9 -8 -36
-17 -60 -21 -25 -4 -67 -17 -95 -29 -27 -12 -67 -25 -89 -29 -21 -4 -55 -16
-75 -27 -20 -10 -44 -19 -53 -19 -10 0 -42 -11 -72 -25 -30 -14 -63 -25 -73
-25 -10 0 -27 -6 -38 -13 -22 -15 -116 -47 -137 -47 -8 0 -24 -8 -38 -17 -13
-9 -60 -30 -104 -45 -43 -15 -89 -34 -102 -43 -13 -8 -36 -15 -51 -15 -16 0
-39 -7 -51 -16 -12 -8 -48 -24 -79 -35 -31 -10 -66 -25 -77 -32 -12 -8 -43
-20 -71 -27 -27 -7 -62 -21 -76 -31 -14 -10 -48 -23 -75 -30 -27 -6 -58 -20
-69 -30 -11 -9 -33 -21 -50 -25 -16 -4 -67 -24 -111 -45 -45 -22 -87 -39 -93
-39 -7 0 -29 -9 -49 -20 -64 -34 -143 -70 -154 -70 -5 0 -22 -9 -37 -19 -14
-10 -45 -24 -67 -30 -23 -6 -47 -17 -53 -25 -7 -8 -24 -17 -39 -21 -15 -4 -34
-12 -42 -19 -8 -8 -28 -17 -45 -20 -16 -4 -44 -18 -61 -31 -17 -13 -44 -27
-60 -31 -16 -4 -45 -15 -64 -24 -19 -10 -57 -28 -85 -41 -27 -13 -63 -34 -80
-45 -16 -12 -42 -24 -56 -27 -14 -4 -42 -18 -63 -32 -20 -14 -46 -25 -57 -25
-11 0 -22 -7 -25 -15 -3 -8 -22 -19 -42 -26 -21 -7 -39 -15 -42 -18 -7 -9 -42
-30 -67 -41 -13 -6 -33 -14 -45 -20 -30 -13 -187 -101 -218 -121 -14 -10 -36
-20 -50 -24 -14 -5 -39 -18 -56 -31 -17 -13 -35 -24 -41 -24 -5 0 -24 -11 -43
-25 -19 -14 -40 -25 -48 -25 -7 0 -30 -13 -50 -29 -20 -17 -49 -33 -64 -36
-14 -4 -34 -15 -44 -26 -9 -10 -25 -19 -34 -19 -9 0 -25 -9 -35 -20 -10 -11
-27 -22 -39 -26 -11 -4 -43 -22 -69 -40 -27 -19 -55 -34 -62 -34 -6 0 -20 -9
-30 -20 -10 -11 -24 -20 -30 -20 -7 0 -18 -6 -24 -13 -6 -8 -32 -25 -58 -38
-49 -24 -108 -61 -130 -79 -7 -6 -34 -22 -60 -35 -26 -14 -52 -31 -58 -38 -5
-7 -30 -23 -55 -36 -25 -14 -48 -30 -52 -37 -4 -6 -20 -15 -34 -18 -15 -4 -39
-20 -55 -36 -16 -16 -45 -34 -64 -40 -19 -6 -35 -16 -35 -21 0 -5 -15 -16 -32
-24 -31 -14 -75 -43 -123 -79 -11 -9 -36 -26 -55 -39 -19 -13 -55 -38 -80 -56
-61 -43 -149 -104 -169 -116 -9 -5 -40 -27 -68 -47 -28 -21 -56 -38 -62 -38
-6 0 -11 -4 -11 -9 0 -5 -21 -23 -47 -40 -27 -17 -54 -36 -62 -43 -8 -7 -62
-48 -120 -90 -58 -42 -112 -83 -120 -90 -8 -7 -22 -17 -31 -23 -10 -5 -34 -23
-54 -40 -103 -83 -121 -97 -140 -107 -12 -6 -23 -14 -26 -18 -4 -6 -40 -35
-145 -117 -101 -80 -223 -179 -231 -189 -6 -8 -15 -14 -20 -14 -5 0 -38 -27
-74 -60 -36 -32 -69 -59 -73 -60 -4 0 -23 -16 -43 -35 -19 -19 -39 -35 -44
-35 -5 0 -13 -6 -17 -12 -4 -7 -44 -44 -88 -81 -90 -76 -146 -125 -190 -166
-16 -16 -68 -61 -115 -101 -47 -41 -99 -87 -117 -104 -17 -17 -56 -53 -86 -79
-30 -26 -75 -67 -99 -90 -24 -23 -100 -94 -168 -157 -186 -173 -599 -586 -749
-750 -74 -80 -162 -176 -197 -213 -35 -37 -64 -71 -64 -75 0 -4 -13 -19 -30
-34 -16 -14 -48 -48 -69 -75 -21 -26 -52 -62 -67 -79 -16 -17 -45 -50 -64 -73
-19 -24 -49 -58 -65 -76 -17 -17 -42 -47 -57 -66 -15 -19 -45 -54 -67 -79 -22
-25 -44 -49 -48 -55 -55 -69 -179 -221 -184 -225 -4 -3 -29 -34 -57 -70 -28
-36 -57 -72 -65 -80 -7 -8 -35 -44 -62 -80 -68 -90 -68 -89 -87 -108 -10 -9
-18 -22 -18 -29 0 -7 -3 -13 -7 -13 -5 0 -33 -34 -63 -75 -30 -41 -57 -75 -61
-75 -4 0 -10 -8 -13 -17 -3 -10 -16 -30 -28 -45 -13 -14 -30 -36 -38 -48 -8
-13 -22 -30 -31 -39 -9 -9 -23 -30 -32 -46 -8 -17 -25 -39 -37 -50 -12 -11
-26 -29 -31 -40 -5 -11 -29 -47 -53 -80 -47 -64 -151 -212 -176 -250 -8 -13
-33 -49 -55 -80 -22 -32 -44 -64 -50 -73 -5 -9 -13 -21 -18 -26 -46 -65 -79
-117 -93 -143 -9 -18 -20 -33 -24 -33 -5 0 -12 -10 -16 -22 -3 -13 -14 -31
-23 -41 -9 -11 -27 -38 -41 -62 -14 -23 -42 -67 -62 -98 -20 -30 -44 -69 -53
-86 -9 -18 -25 -41 -36 -52 -10 -10 -19 -25 -19 -33 0 -7 -6 -19 -13 -25 -8
-6 -25 -32 -38 -58 -13 -27 -29 -52 -36 -56 -7 -4 -13 -14 -13 -21 0 -6 -14
-32 -32 -56 -32 -43 -50 -72 -85 -140 -11 -19 -33 -57 -51 -84 -18 -28 -32
-53 -32 -57 0 -4 -16 -31 -35 -61 -20 -29 -45 -73 -57 -97 -12 -25 -30 -53
-40 -63 -10 -10 -18 -27 -18 -38 0 -11 -3 -20 -7 -20 -5 0 -16 -15 -26 -32
-29 -51 -119 -219 -139 -260 -10 -20 -22 -40 -28 -43 -5 -3 -10 -15 -10 -26 0
-10 -9 -28 -19 -38 -10 -10 -22 -30 -26 -43 -6 -19 -40 -81 -86 -158 -5 -8
-14 -26 -20 -40 -6 -14 -17 -36 -24 -50 -40 -75 -95 -190 -95 -198 0 -5 -6
-15 -14 -21 -8 -7 -18 -27 -22 -44 -3 -18 -15 -43 -25 -56 -11 -13 -19 -28
-19 -33 0 -9 -33 -82 -50 -108 -5 -8 -21 -42 -35 -75 -15 -33 -30 -67 -36 -75
-11 -18 -11 -19 -61 -140 -21 -52 -43 -102 -49 -110 -13 -21 -24 -45 -51 -115
-12 -33 -31 -73 -40 -90 -10 -16 -18 -35 -18 -42 0 -6 -16 -45 -35 -86 -19
-41 -35 -79 -35 -85 0 -6 -16 -42 -35 -81 -19 -38 -35 -78 -35 -88 0 -10 -9
-31 -20 -48 -11 -16 -20 -38 -20 -48 0 -10 -6 -28 -14 -40 -8 -12 -26 -58 -41
-102 -15 -44 -33 -87 -40 -95 -7 -8 -16 -31 -20 -50 -4 -19 -13 -45 -21 -57
-8 -12 -14 -28 -14 -35 -1 -7 -9 -31 -20 -53 -11 -22 -20 -47 -20 -55 0 -8 -9
-33 -20 -55 -11 -22 -19 -49 -20 -61 0 -11 -4 -24 -10 -30 -11 -11 -48 -114
-59 -165 -4 -20 -15 -47 -24 -60 -10 -13 -17 -33 -17 -44 0 -11 -7 -33 -15
-49 -8 -16 -18 -47 -21 -70 -4 -22 -14 -55 -24 -71 -9 -17 -20 -49 -23 -71 -4
-23 -14 -54 -22 -70 -8 -16 -15 -36 -15 -44 0 -8 -6 -27 -14 -42 -8 -15 -17
-42 -21 -60 -8 -40 -32 -120 -50 -168 -7 -19 -18 -60 -24 -90 -7 -30 -18 -71
-26 -90 -15 -38 -30 -91 -71 -245 -32 -124 -52 -197 -69 -255 -7 -25 -16 -63
-20 -85 -4 -22 -11 -46 -17 -53 -6 -6 -16 -42 -23 -80 -8 -37 -19 -87 -25
-112 -47 -175 -80 -324 -80 -355 0 -17 -9 -47 -20 -68 -11 -20 -20 -51 -20
-67 0 -17 -11 -76 -24 -133 -31 -130 -44 -198 -52 -267 -4 -30 -11 -60 -16
-67 -5 -6 -16 -54 -24 -105 -8 -51 -23 -138 -34 -193 -11 -55 -27 -140 -35
-190 -7 -49 -19 -117 -25 -150 -14 -78 -35 -205 -61 -380 -40 -270 -59 -424
-69 -570 -5 -66 -14 -154 -20 -195 -6 -41 -13 -113 -15 -160 -3 -47 -12 -155
-21 -240 -8 -85 -19 -216 -24 -290 -5 -74 -14 -187 -19 -250 -5 -63 -9 -126
-8 -140 1 -14 -1 -99 -5 -190 -8 -161 -22 -705 -22 -785 5 -469 28 -1294 40
-1405 3 -30 7 -91 9 -135 8 -248 17 -386 25 -430 6 -27 17 -131 25 -230 30
-361 45 -513 60 -606 8 -52 15 -121 15 -154 0 -33 7 -84 15 -114 7 -29 17 -90
20 -135 7 -76 30 -233 40 -266 5 -17 10 -56 25 -190 6 -52 17 -111 25 -130 7
-19 16 -73 20 -119 3 -46 15 -109 25 -139 11 -31 20 -70 20 -87 0 -40 27 -186
44 -245 8 -26 17 -78 21 -116 4 -38 14 -85 22 -104 8 -19 21 -75 28 -125 15
-95 28 -151 51 -225 8 -25 14 -53 14 -64 0 -17 28 -141 66 -296 9 -36 20 -81
24 -100 4 -19 24 -98 45 -175 20 -77 44 -167 51 -199 8 -33 19 -65 23 -70 5
-6 16 -45 24 -86 8 -41 19 -88 25 -105 10 -29 39 -127 62 -210 37 -132 81
-277 98 -325 11 -30 23 -68 26 -84 4 -15 15 -47 26 -70 10 -22 20 -58 23 -79
3 -20 13 -44 21 -53 9 -8 16 -25 16 -38 0 -24 37 -135 51 -152 4 -6 14 -35 20
-65 6 -30 17 -65 25 -79 7 -14 32 -81 55 -150 22 -69 47 -135 55 -147 8 -12
14 -33 14 -45 0 -13 8 -36 18 -53 10 -16 29 -61 42 -100 12 -38 31 -88 40
-110 34 -78 82 -200 89 -230 5 -16 18 -48 29 -70 12 -22 22 -46 22 -53 0 -7
14 -40 30 -74 17 -33 30 -64 30 -69 0 -4 15 -41 34 -81 19 -40 39 -92 45 -114
6 -23 18 -47 26 -54 8 -7 15 -18 15 -24 1 -6 9 -29 20 -51 11 -22 19 -46 20
-54 0 -8 6 -22 14 -30 7 -9 24 -43 37 -76 13 -33 31 -71 41 -84 10 -13 18 -30
18 -39 0 -8 19 -53 41 -101 41 -85 61 -129 154 -326 26 -55 52 -109 58 -120 6
-11 19 -38 29 -60 10 -22 24 -49 30 -60 6 -11 27 -51 45 -90 19 -38 39 -79 46
-90 6 -11 41 -78 78 -150 61 -120 97 -187 176 -335 17 -30 40 -71 52 -90 11
-19 28 -51 37 -70 9 -19 28 -53 43 -75 15 -22 33 -55 40 -72 7 -18 17 -33 22
-33 5 0 9 -8 9 -19 0 -10 9 -30 21 -45 19 -24 47 -72 86 -147 7 -15 20 -32 28
-39 8 -7 15 -18 15 -24 0 -10 54 -100 101 -168 11 -15 19 -30 19 -33 0 -3 15
-29 34 -58 18 -28 50 -78 70 -109 20 -31 36 -60 36 -64 0 -4 8 -16 17 -26 18
-20 47 -66 83 -131 11 -21 30 -47 40 -57 11 -11 20 -24 20 -30 0 -5 18 -35 40
-67 22 -32 45 -65 50 -73 5 -8 28 -41 50 -73 22 -32 40 -60 40 -63 0 -8 83
-125 103 -146 9 -10 17 -25 17 -33 0 -7 6 -18 13 -22 6 -4 29 -33 49 -63 20
-30 55 -80 77 -110 23 -30 44 -63 47 -72 3 -9 12 -19 20 -22 8 -3 14 -12 14
-21 0 -8 4 -15 10 -15 5 0 17 -15 26 -33 9 -17 23 -36 30 -40 8 -4 14 -13 14
-20 0 -7 18 -32 40 -57 22 -25 40 -51 40 -57 0 -7 4 -13 9 -13 4 0 21 -19 37
-42 16 -23 35 -49 42 -58 26 -31 157 -202 167 -219 6 -9 21 -28 34 -41 13 -14
34 -41 46 -60 13 -19 35 -48 49 -65 14 -16 31 -36 37 -44 7 -7 34 -41 61 -75
26 -33 61 -76 76 -95 41 -52 160 -192 193 -228 16 -17 29 -34 29 -36 0 -3 17
-25 38 -48 20 -23 59 -68 86 -98 26 -31 58 -67 70 -81 13 -14 60 -68 106 -120
45 -52 108 -122 139 -156 31 -33 88 -96 126 -138 39 -43 88 -97 110 -120 22
-24 92 -98 155 -166 213 -227 716 -725 989 -978 25 -23 66 -62 91 -85 25 -24
108 -99 185 -167 77 -68 149 -133 161 -145 26 -26 135 -121 268 -233 28 -23
60 -51 71 -60 11 -10 54 -45 95 -77 41 -33 94 -75 117 -95 23 -19 62 -51 88
-70 25 -19 60 -48 78 -63 17 -16 58 -47 89 -69 32 -23 58 -45 58 -49 0 -5 7
-9 15 -9 7 0 18 -6 22 -14 4 -7 28 -28 53 -45 25 -18 72 -52 105 -76 33 -25
78 -57 100 -72 21 -16 51 -39 65 -52 14 -13 40 -30 58 -37 17 -8 32 -18 32
-23 0 -4 19 -21 43 -37 23 -15 60 -42 82 -59 21 -16 46 -34 56 -40 37 -23 102
-67 151 -105 29 -22 58 -40 64 -40 6 0 21 -12 35 -26 13 -14 41 -35 62 -45 20
-11 37 -24 37 -29 0 -5 9 -11 19 -15 11 -3 49 -28 86 -55 37 -27 75 -52 86
-55 11 -4 32 -18 47 -32 15 -14 43 -33 62 -43 19 -10 47 -29 61 -43 13 -14 37
-29 52 -32 15 -4 31 -12 35 -19 8 -13 133 -97 180 -120 18 -10 42 -26 54 -38
11 -11 39 -28 62 -38 23 -11 52 -30 66 -44 13 -15 29 -26 35 -26 7 0 43 -20
79 -45 37 -25 71 -45 75 -45 4 0 23 -12 42 -26 19 -14 50 -32 69 -40 19 -8 40
-20 45 -27 6 -7 36 -25 67 -41 32 -15 60 -32 64 -37 3 -6 29 -21 58 -34 29
-13 59 -31 65 -39 7 -9 46 -32 87 -51 40 -19 76 -40 79 -45 3 -5 38 -26 78
-45 40 -20 93 -48 118 -64 25 -16 57 -32 70 -36 13 -4 30 -16 37 -26 7 -11 18
-19 24 -19 18 0 101 -43 140 -73 21 -16 55 -33 75 -39 21 -6 54 -22 73 -37 19
-15 54 -33 77 -39 23 -7 45 -17 48 -22 8 -12 89 -50 108 -50 8 0 22 -9 32 -20
10 -11 23 -20 29 -20 6 0 34 -11 61 -25 28 -13 53 -25 57 -25 4 0 30 -13 56
-30 27 -16 55 -30 63 -30 8 0 41 -14 74 -30 33 -17 66 -30 75 -30 8 0 35 -10
60 -23 97 -49 293 -89 428 -88 112 1 224 16 266 36 17 8 58 24 91 36 33 12 72
30 87 40 14 11 31 19 37 19 10 0 72 38 98 60 7 6 32 24 56 40 24 16 61 45 83
65 21 20 50 46 64 59 31 29 80 84 100 112 8 12 36 49 62 83 45 57 88 137 88
161 0 7 9 23 20 37 11 14 20 36 20 48 0 12 9 51 21 86 19 59 20 82 17 304 -3
181 -7 246 -18 265 -7 14 -17 49 -21 79 -5 33 -14 58 -23 63 -9 5 -16 21 -16
36 -1 15 -14 50 -30 77 -17 28 -36 63 -43 78 -21 45 -188 227 -207 227 -5 0
-21 15 -38 34 -16 19 -39 37 -51 41 -11 3 -27 12 -33 19 -7 7 -34 25 -60 40
-25 15 -52 33 -58 41 -7 8 -20 15 -30 15 -10 0 -23 7 -30 15 -7 8 -36 26 -66
41 -29 14 -58 32 -65 40 -6 8 -20 14 -30 14 -11 0 -27 8 -37 17 -9 10 -41 29
-70 42 -28 14 -52 28 -52 32 0 4 -12 10 -27 14 -16 3 -37 15 -48 25 -11 10
-31 21 -45 25 -14 4 -32 13 -40 21 -9 7 -36 23 -60 35 -25 11 -72 36 -105 54
-33 19 -73 40 -90 48 -16 9 -41 24 -55 35 -14 10 -36 23 -50 27 -14 4 -39 18
-56 31 -17 13 -35 24 -39 24 -4 0 -22 11 -39 24 -17 13 -42 27 -56 31 -14 4
-33 16 -43 26 -10 11 -24 19 -31 19 -7 0 -31 12 -52 28 -21 15 -52 33 -67 40
-15 6 -33 17 -40 22 -21 18 -146 90 -156 90 -5 0 -16 8 -23 19 -7 10 -24 22
-38 26 -14 4 -41 21 -61 36 -20 16 -42 29 -47 29 -6 0 -23 11 -39 24 -15 13
-47 33 -71 45 -24 12 -45 28 -49 36 -3 8 -13 15 -23 15 -9 0 -37 16 -61 35
-24 19 -48 35 -53 35 -4 0 -21 11 -38 25 -16 14 -35 25 -43 25 -7 0 -15 6 -18
13 -2 7 -26 24 -52 37 -26 13 -50 30 -52 37 -3 7 -9 13 -14 13 -13 0 -92 52
-102 67 -4 7 -14 13 -21 13 -7 0 -34 16 -59 35 -25 19 -50 35 -55 35 -5 0 -17
9 -27 20 -10 11 -26 22 -37 26 -10 3 -29 15 -42 28 -14 12 -37 28 -53 36 -15
8 -41 27 -57 42 -17 16 -35 28 -41 28 -6 0 -24 11 -40 25 -17 13 -55 42 -85
64 -63 45 -96 71 -115 89 -8 6 -17 12 -20 12 -4 0 -22 12 -40 27 -60 50 -108
88 -126 98 -18 10 -193 143 -219 167 -8 7 -29 23 -45 36 -17 12 -43 33 -59 45
-16 12 -46 37 -66 54 -21 18 -42 33 -48 33 -6 0 -15 6 -19 14 -4 7 -46 44 -93
81 -47 38 -89 75 -93 82 -4 7 -14 13 -22 13 -8 0 -18 6 -22 13 -4 7 -46 44
-93 82 -47 38 -90 74 -97 80 -7 5 -18 15 -25 21 -7 5 -96 84 -198 175 -102 90
-200 178 -219 194 -19 17 -46 41 -61 55 -15 14 -62 57 -104 95 -58 52 -346
330 -469 452 -59 60 -307 315 -307 317 0 2 -37 42 -82 88 -46 47 -114 120
-153 163 -38 42 -87 94 -107 115 -21 20 -38 41 -38 46 0 5 -16 22 -35 38 -19
16 -35 33 -35 38 0 4 -15 23 -33 41 -18 17 -55 59 -83 92 -27 32 -56 66 -64
75 -31 34 -125 147 -195 236 -16 21 -40 48 -52 61 -12 12 -34 39 -50 60 -37
49 -46 60 -88 106 -19 21 -35 42 -35 46 0 5 -18 29 -40 54 -22 25 -40 49 -40
54 0 4 -16 24 -35 42 -19 19 -37 43 -41 53 -3 10 -9 18 -14 18 -5 0 -16 12
-24 27 -8 16 -27 42 -43 60 -42 48 -103 130 -103 139 0 4 -7 14 -15 23 -26 28
-65 79 -65 85 0 3 -7 14 -16 24 -41 46 -94 118 -94 127 0 5 -14 24 -30 42 -17
18 -30 36 -30 40 0 5 -11 22 -25 38 -40 49 -105 139 -105 147 0 4 -14 22 -30
40 -17 18 -33 43 -37 56 -3 12 -14 27 -24 33 -11 5 -19 15 -19 21 0 6 -16 33
-35 59 -19 27 -35 52 -35 55 0 3 -11 20 -25 38 -14 18 -25 36 -25 40 0 4 -4
12 -10 19 -44 54 -60 76 -60 82 0 4 -13 24 -30 45 -16 21 -30 43 -30 48 0 6
-11 24 -25 40 -13 16 -29 40 -35 53 -6 13 -29 51 -50 84 -22 33 -43 67 -47 75
-3 8 -20 35 -37 60 -18 25 -38 60 -45 78 -7 17 -17 32 -21 32 -4 0 -13 15 -21
33 -7 17 -23 46 -36 63 -13 17 -23 36 -23 42 0 6 -11 23 -24 39 -14 16 -28 41
-31 56 -4 15 -10 27 -14 27 -4 0 -18 21 -31 48 -12 26 -31 56 -40 67 -10 11
-21 31 -25 45 -4 14 -11 27 -15 30 -4 3 -20 29 -36 59 -16 29 -41 74 -55 100
-22 40 -48 87 -97 179 -7 12 -17 32 -23 44 -21 41 -71 132 -100 183 -15 28
-33 61 -38 75 -6 14 -16 32 -21 40 -6 8 -15 26 -21 40 -14 31 -108 229 -120
253 -5 9 -13 25 -18 35 -10 18 -71 148 -182 388 -10 23 -19 44 -19 48 0 4 -13
35 -29 69 -60 129 -81 176 -81 184 0 4 -10 28 -21 53 -12 25 -28 59 -35 75 -7
17 -23 55 -37 85 -14 30 -28 66 -31 80 -4 14 -13 39 -21 55 -7 17 -21 50 -30
75 -10 25 -23 59 -30 75 -7 17 -20 48 -28 70 -8 22 -24 65 -37 95 -12 30 -26
70 -30 88 -4 18 -15 43 -24 57 -9 13 -16 30 -16 37 0 7 -6 25 -14 40 -8 15
-17 42 -21 60 -4 18 -16 49 -26 68 -11 19 -19 43 -19 53 0 11 -7 31 -15 45 -8
15 -21 50 -29 77 -8 28 -24 75 -36 105 -12 30 -28 78 -36 105 -8 28 -19 59
-24 70 -5 11 -14 36 -19 55 -8 29 -37 111 -94 270 -3 8 -24 76 -47 150 -23 74
-50 160 -61 190 -19 56 -56 187 -90 318 -35 133 -57 216 -79 292 -11 41 -25
95 -30 120 -5 25 -15 68 -23 95 -8 28 -18 68 -22 90 -3 22 -13 60 -20 85 -23
77 -55 217 -55 243 0 13 -7 41 -15 60 -8 20 -15 52 -15 71 0 20 -7 53 -15 73
-8 21 -19 74 -25 118 -6 44 -15 84 -20 89 -6 6 -10 26 -10 46 0 20 -6 60 -14
90 -8 30 -17 78 -21 105 -4 28 -13 73 -20 100 -7 28 -19 91 -25 140 -7 50 -16
113 -20 140 -4 28 -15 97 -24 155 -9 58 -18 116 -21 130 -3 14 -10 66 -15 115
-5 50 -16 142 -24 205 -8 63 -22 187 -31 275 -9 88 -23 230 -32 315 -41 404
-75 966 -77 1300 -1 80 -4 150 -7 155 -6 9 5 651 15 935 2 58 7 204 10 325 4
121 11 272 17 335 22 243 39 472 49 640 6 96 17 202 25 235 8 33 22 132 30
220 9 88 22 198 30 245 8 47 20 130 26 185 6 55 18 123 26 150 8 28 21 93 29
145 7 52 23 145 34 205 12 61 28 144 35 186 7 42 17 85 23 95 5 11 13 52 16
93 4 40 11 84 16 97 14 35 60 246 60 272 0 13 7 36 15 51 8 16 19 55 24 87 5
33 19 93 31 134 11 41 25 98 31 125 5 28 19 79 29 115 10 36 23 85 30 110 6
25 18 68 26 95 8 28 24 83 34 122 10 40 25 92 33 115 8 24 23 70 32 103 28 99
57 188 71 222 8 17 14 44 14 60 0 16 6 37 14 48 7 11 16 38 20 59 4 21 13 48
21 60 7 12 18 46 25 76 7 30 17 62 21 70 11 19 37 92 54 154 8 27 19 54 24 59
6 6 11 23 11 37 0 14 7 35 15 46 8 10 15 28 15 39 0 11 9 37 20 58 11 20 20
45 20 54 0 10 9 32 19 50 11 17 23 49 27 70 3 21 12 48 20 60 8 12 14 28 14
35 0 7 9 30 20 51 11 20 20 42 20 48 0 7 9 30 19 53 11 23 29 66 41 96 12 30
27 69 35 85 7 17 21 50 30 75 9 25 25 63 35 85 47 100 70 154 70 163 0 5 16
41 35 78 19 38 35 75 35 82 0 7 16 42 35 78 19 35 35 69 35 75 0 6 34 79 75
164 41 84 75 158 75 163 0 6 6 17 14 25 8 7 31 52 52 98 21 46 47 98 59 114
12 17 26 45 29 62 4 18 12 35 17 39 8 5 37 58 130 246 11 20 23 40 29 43 5 3
10 13 10 22 0 8 8 27 18 41 10 15 27 47 37 72 10 25 26 54 36 65 17 20 59 107
59 122 0 5 9 14 20 21 11 7 20 19 20 28 0 14 47 103 60 114 4 3 16 25 28 50
12 25 37 69 57 98 19 29 42 68 50 86 9 18 25 42 35 54 10 11 26 36 34 56 8 20
20 36 25 36 6 0 11 7 11 16 0 9 15 37 33 63 18 25 36 53 39 63 4 9 32 53 62
97 31 44 56 83 56 86 0 3 22 36 50 75 27 38 52 81 56 95 4 15 13 29 21 32 8 3
28 30 45 59 16 30 34 54 39 54 5 0 9 5 9 10 0 6 17 34 38 63 20 29 43 62 50
72 61 94 76 115 84 115 5 0 13 11 18 24 8 22 59 96 93 136 7 8 25 34 41 58 16
23 33 42 38 42 4 0 12 10 17 23 5 12 25 44 45 70 20 26 36 52 36 57 0 6 4 10
9 10 4 0 25 25 45 55 20 30 41 55 46 55 6 0 10 6 10 13 0 6 16 30 35 51 19 22
35 42 35 46 0 4 16 24 35 46 19 21 35 44 35 51 0 7 6 16 14 20 8 4 29 28 47
53 18 25 38 49 46 53 7 4 13 14 13 20 0 7 8 20 18 29 26 26 46 49 78 93 16 22
35 44 41 48 7 4 13 14 13 21 0 7 16 26 35 42 19 16 35 32 35 37 0 9 108 141
165 201 31 32 96 108 135 156 19 24 62 71 95 106 33 34 74 77 90 96 104 116
218 239 298 321 50 53 111 116 134 141 23 25 45 46 47 46 7 0 56 49 56 56 0 2
21 24 46 47 25 23 87 83 138 132 50 50 152 146 226 215 74 68 150 139 167 157
18 18 36 33 39 33 3 0 23 17 44 38 54 53 179 164 205 182 12 8 36 30 53 48 17
17 36 32 41 32 6 0 14 6 18 14 4 7 46 44 93 81 47 38 89 75 93 82 4 7 15 13
22 13 8 0 15 4 15 8 0 4 24 26 53 47 28 22 66 52 82 67 17 16 36 28 43 28 6 0
12 6 12 13 0 8 10 18 23 24 12 6 41 26 64 44 103 83 118 95 139 109 13 8 67
49 120 90 91 71 139 106 209 154 17 12 44 33 60 49 16 15 35 27 41 27 6 0 23
11 38 25 15 14 29 25 32 25 3 0 29 18 58 40 29 22 58 40 64 40 7 0 12 4 12 9
0 8 117 88 145 100 6 2 28 19 50 36 22 18 50 35 61 39 12 4 29 15 39 26 10 11
22 20 28 20 5 0 31 16 57 35 26 19 52 35 57 35 6 0 18 9 28 20 10 11 27 22 38
26 11 4 32 17 46 30 14 13 38 26 54 30 15 3 31 12 34 19 2 8 28 26 56 40 29
15 57 33 63 40 5 8 22 17 37 20 15 4 31 12 35 19 4 6 27 22 52 35 25 13 50 29
55 36 6 7 21 16 35 20 14 4 39 18 55 30 17 13 46 31 65 40 19 10 37 21 40 24
3 4 23 16 45 28 84 43 131 69 155 86 13 9 32 17 42 17 9 0 21 6 25 14 4 7 26
22 48 33 22 11 66 34 97 51 31 17 65 35 75 40 10 5 32 16 48 25 17 9 50 26 75
37 25 12 52 25 60 30 8 5 53 28 100 51 47 23 96 49 110 59 14 9 37 20 52 24
15 3 33 13 42 21 8 8 18 15 23 15 7 0 82 36 337 161 43 22 86 39 96 39 9 0 27
9 40 20 13 11 30 20 37 20 8 0 40 14 70 30 30 17 58 30 63 30 5 0 47 18 92 39
46 22 97 43 113 47 17 4 44 16 60 26 17 10 38 18 47 18 9 0 32 8 50 19 18 10
60 29 93 41 33 13 80 33 105 45 25 13 63 28 85 35 22 7 45 16 50 19 13 9 152
61 235 88 25 8 61 23 81 34 20 10 47 19 59 19 13 0 41 8 64 19 52 23 100 40
150 52 21 5 48 16 60 24 11 8 34 15 51 15 16 0 44 9 60 20 17 11 43 20 58 20
16 0 41 6 55 14 35 19 117 46 167 55 22 4 49 12 60 18 11 6 44 16 73 23 28 6
54 16 57 20 3 5 27 12 53 15 26 4 61 12 77 20 17 7 50 18 75 24 25 6 86 23
135 37 50 14 115 32 145 40 64 17 150 41 200 57 19 6 53 14 75 18 22 4 54 11
70 17 35 12 103 30 160 42 22 4 72 16 110 25 77 18 181 40 264 56 30 5 58 12
64 16 5 3 46 11 91 18 44 7 113 20 151 29 134 31 200 45 250 51 28 3 79 12
115 20 36 7 97 19 135 25 39 7 95 16 125 21 30 5 89 13 130 18 41 5 140 19
220 30 80 12 181 25 225 31 44 5 116 15 160 21 44 5 105 12 135 13 116 7 356
27 380 31 31 6 321 25 455 30 55 3 140 9 188 15 73 9 1171 8 1302 0 17 -1 86
-6 155 -11 69 -5 199 -11 290 -14 225 -7 354 -15 423 -26 32 -6 82 -12 110
-14 29 -2 99 -9 157 -15 58 -5 150 -13 205 -16 55 -3 120 -12 145 -19 25 -7
106 -21 180 -30 202 -24 211 -26 260 -36 25 -5 90 -16 145 -24 55 -8 123 -19
150 -25 28 -6 84 -15 125 -21 41 -6 89 -15 105 -21 17 -5 64 -16 105 -23 144
-26 340 -67 445 -94 47 -12 280 -65 345 -79 58 -12 315 -80 500 -132 80 -23
163 -46 185 -51 22 -6 60 -17 85 -25 25 -9 77 -24 115 -35 39 -10 108 -33 155
-49 47 -17 104 -35 127 -40 23 -5 60 -18 81 -29 21 -11 56 -23 77 -26 22 -4
47 -13 55 -20 8 -7 39 -18 68 -24 29 -6 72 -19 95 -30 23 -10 65 -24 92 -31
28 -8 64 -22 80 -31 17 -10 48 -21 70 -25 22 -4 54 -15 72 -25 17 -10 51 -23
75 -29 24 -7 50 -18 59 -26 9 -8 34 -18 55 -21 22 -3 62 -19 91 -34 28 -16 77
-35 107 -44 31 -9 58 -20 61 -25 3 -5 34 -18 70 -30 36 -12 67 -25 70 -30 3
-5 29 -16 58 -25 28 -10 77 -30 107 -46 30 -15 67 -30 82 -33 15 -4 33 -12 40
-20 8 -7 42 -24 76 -36 34 -12 67 -29 73 -36 6 -8 19 -14 28 -14 9 0 52 -18
95 -40 43 -22 87 -40 97 -40 10 0 20 -4 23 -9 7 -10 150 -85 184 -96 13 -4 33
-16 43 -26 10 -10 25 -19 33 -19 7 0 33 -11 57 -25 24 -14 51 -29 59 -34 8 -4
29 -15 45 -24 17 -9 41 -22 55 -28 54 -25 106 -53 120 -64 8 -7 26 -16 40 -20
14 -4 39 -17 55 -30 17 -12 47 -27 67 -34 20 -7 41 -18 48 -25 6 -8 49 -33 96
-56 46 -24 87 -47 90 -51 3 -5 31 -21 62 -37 31 -15 78 -42 104 -60 26 -17 53
-32 62 -32 8 0 28 -12 43 -26 15 -15 44 -33 63 -41 19 -9 51 -28 70 -43 19
-15 49 -35 65 -44 36 -20 48 -27 152 -93 45 -29 86 -53 92 -53 5 0 14 -6 18
-14 4 -8 31 -26 58 -41 28 -15 61 -38 76 -51 14 -13 28 -24 32 -24 4 0 34 -19
68 -42 33 -24 73 -50 88 -58 15 -8 43 -27 63 -42 19 -16 40 -28 46 -28 6 0 15
-7 19 -15 5 -8 32 -30 60 -47 73 -46 183 -124 263 -185 38 -29 72 -53 75 -53
4 0 27 -18 52 -40 25 -22 49 -40 54 -40 4 0 19 -10 32 -22 13 -13 60 -50 105
-83 106 -77 149 -109 192 -145 107 -87 251 -204 293 -237 26 -21 60 -49 76
-63 15 -14 52 -45 81 -70 29 -25 78 -68 109 -95 31 -28 71 -64 90 -80 269
-235 636 -592 906 -880 82 -88 162 -172 177 -188 15 -15 28 -31 28 -35 0 -5
16 -22 35 -38 19 -16 35 -33 35 -38 0 -5 10 -18 23 -30 12 -12 40 -44 62 -70
22 -27 56 -66 75 -87 19 -21 49 -55 65 -76 33 -42 105 -127 132 -158 10 -11
48 -58 86 -105 38 -47 73 -86 78 -88 5 -2 9 -9 9 -15 0 -7 17 -31 38 -54 20
-23 50 -60 66 -82 17 -23 33 -41 38 -41 4 0 8 -6 8 -13 0 -7 14 -27 30 -46 17
-18 37 -46 45 -62 9 -16 19 -29 23 -29 5 0 18 -17 30 -38 11 -21 30 -46 42
-57 11 -10 20 -24 20 -31 0 -7 6 -17 14 -21 7 -4 29 -30 47 -57 19 -26 48 -68
64 -91 17 -24 47 -68 68 -99 22 -31 43 -56 47 -56 5 0 14 -16 21 -35 7 -19 16
-35 20 -35 4 0 21 -21 38 -47 71 -110 131 -199 145 -215 9 -10 16 -20 16 -23
0 -7 52 -87 67 -103 7 -7 16 -24 19 -37 3 -13 12 -26 20 -29 8 -3 14 -11 14
-17 0 -6 16 -34 35 -60 19 -27 35 -51 35 -54 0 -3 27 -47 60 -98 33 -52 60
-99 60 -104 0 -6 7 -16 16 -24 8 -7 26 -33 40 -58 13 -25 35 -64 49 -86 30
-49 54 -91 79 -138 11 -21 23 -37 28 -37 4 0 8 -8 8 -19 0 -10 8 -29 19 -42
20 -25 150 -264 188 -344 8 -16 18 -37 23 -45 5 -8 25 -46 44 -85 20 -38 42
-81 51 -95 8 -14 24 -45 35 -70 11 -25 27 -56 34 -70 15 -27 71 -145 135 -282
23 -48 41 -93 41 -99 0 -6 8 -23 18 -37 10 -15 27 -49 37 -77 9 -27 26 -64 36
-81 11 -17 19 -38 19 -46 0 -8 16 -45 35 -84 19 -38 35 -74 35 -81 0 -6 15
-45 34 -85 19 -41 39 -93 45 -116 7 -22 15 -44 20 -46 5 -3 16 -29 26 -58 9
-29 27 -75 40 -103 12 -27 26 -61 30 -75 7 -25 11 -36 55 -140 12 -30 31 -80
41 -110 11 -30 23 -64 29 -75 5 -11 22 -56 36 -100 15 -44 30 -84 34 -90 5 -5
16 -39 25 -75 9 -36 21 -70 25 -75 5 -6 14 -33 21 -60 6 -28 18 -62 25 -76 7
-14 21 -57 30 -95 10 -38 23 -78 30 -89 7 -11 15 -39 19 -62 3 -22 13 -49 20
-60 8 -10 15 -29 15 -42 0 -13 12 -60 26 -105 41 -129 44 -141 44 -162 0 -11
9 -47 21 -79 12 -33 28 -89 36 -125 29 -126 42 -175 57 -215 8 -22 15 -51 15
-65 1 -14 9 -54 20 -90 30 -100 51 -195 51 -227 0 -16 6 -38 14 -49 8 -11 17
-42 21 -69 4 -28 16 -90 27 -140 11 -49 26 -129 33 -176 8 -48 19 -106 25
-129 6 -23 20 -96 30 -163 11 -67 28 -171 40 -232 11 -60 24 -144 30 -185 5
-41 14 -102 19 -135 6 -33 15 -107 21 -165 5 -58 14 -118 20 -135 9 -32 27
-226 60 -660 35 -474 43 -756 36 -1335 -7 -564 -16 -779 -41 -1010 -8 -74 -20
-214 -26 -310 -6 -97 -19 -210 -29 -255 -11 -44 -24 -123 -30 -175 -6 -52 -17
-135 -24 -185 -8 -49 -23 -157 -35 -240 -12 -82 -26 -161 -32 -175 -6 -13 -15
-56 -20 -95 -11 -83 -33 -197 -48 -243 -5 -18 -13 -65 -17 -105 -4 -40 -13
-84 -20 -99 -8 -15 -14 -41 -14 -58 0 -17 -13 -83 -29 -148 -16 -64 -36 -151
-46 -192 -9 -41 -23 -94 -31 -118 -8 -23 -14 -55 -14 -70 0 -24 -24 -116 -52
-197 -5 -16 -14 -55 -19 -85 -5 -30 -16 -71 -25 -90 -8 -19 -22 -64 -30 -100
-22 -96 -31 -130 -48 -180 -19 -59 -28 -85 -66 -205 -18 -55 -37 -116 -44
-135 -28 -78 -48 -138 -68 -205 -11 -38 -28 -86 -38 -105 -20 -38 -60 -162
-60 -184 0 -7 -8 -24 -19 -37 -10 -13 -21 -42 -25 -64 -5 -22 -14 -51 -21 -65
-29 -55 -73 -160 -80 -191 -4 -18 -16 -46 -26 -63 -10 -17 -19 -41 -19 -52 0
-12 -6 -27 -14 -33 -8 -6 -19 -31 -25 -56 -6 -24 -15 -47 -21 -50 -5 -3 -10
-14 -10 -23 0 -10 -11 -37 -24 -62 -12 -25 -31 -67 -42 -95 -10 -27 -24 -56
-31 -63 -7 -7 -13 -20 -13 -28 0 -8 -9 -32 -19 -52 -43 -83 -91 -189 -97 -214
-3 -15 -12 -32 -20 -39 -8 -6 -14 -16 -14 -21 0 -13 -84 -185 -142 -291 -26
-48 -48 -93 -48 -101 0 -8 -6 -21 -14 -28 -7 -7 -26 -40 -42 -73 -17 -33 -35
-69 -41 -80 -6 -11 -14 -27 -17 -35 -3 -8 -19 -37 -35 -65 -16 -27 -37 -66
-47 -85 -10 -19 -27 -48 -38 -65 -22 -32 -43 -68 -72 -125 -9 -19 -28 -49 -40
-66 -13 -17 -26 -43 -30 -58 -3 -14 -10 -26 -15 -26 -4 0 -28 -38 -53 -83 -25
-46 -55 -94 -66 -107 -11 -13 -20 -27 -20 -32 0 -5 -15 -30 -32 -56 -18 -26
-40 -59 -48 -73 -53 -93 -83 -139 -91 -139 -5 0 -9 -6 -9 -14 0 -8 -11 -27
-24 -43 -13 -15 -31 -42 -40 -60 -9 -18 -27 -44 -41 -59 -14 -15 -25 -31 -25
-36 0 -5 -6 -16 -12 -23 -28 -31 -38 -44 -38 -51 0 -4 -17 -30 -38 -58 -37
-50 -67 -93 -87 -125 -32 -50 -90 -127 -102 -134 -7 -4 -13 -13 -13 -20 0 -7
-17 -33 -37 -59 -21 -25 -60 -78 -88 -117 -27 -39 -53 -71 -57 -71 -4 0 -8 -7
-8 -15 0 -8 -5 -15 -10 -15 -6 0 -15 -11 -20 -25 -5 -14 -14 -25 -18 -25 -5 0
-21 -18 -36 -41 -15 -22 -36 -48 -46 -57 -11 -9 -20 -22 -20 -29 0 -7 -4 -13
-8 -13 -5 0 -21 -18 -38 -41 -16 -22 -40 -53 -54 -68 -26 -29 -62 -73 -102
-126 -13 -16 -30 -37 -38 -46 -8 -9 -33 -38 -55 -65 -22 -26 -49 -58 -60 -70
-11 -12 -42 -48 -70 -80 -53 -61 -115 -130 -180 -199 -22 -24 -71 -78 -110
-121 -91 -101 -469 -479 -614 -614 -62 -58 -132 -123 -156 -145 -24 -22 -71
-65 -106 -95 -35 -30 -74 -65 -87 -78 -12 -12 -26 -22 -29 -22 -3 0 -22 -16
-42 -35 -20 -19 -61 -55 -91 -80 -30 -25 -71 -59 -90 -75 -19 -16 -56 -46 -81
-67 -26 -21 -66 -54 -89 -73 -23 -19 -50 -39 -61 -44 -10 -5 -19 -12 -19 -16
0 -4 -21 -22 -47 -40 -27 -19 -52 -40 -56 -47 -4 -7 -14 -13 -20 -13 -7 0 -20
-8 -28 -17 -9 -10 -26 -25 -39 -33 -12 -8 -39 -28 -60 -45 -20 -16 -56 -43
-79 -60 -23 -16 -72 -53 -110 -81 -37 -28 -88 -64 -112 -80 -24 -16 -54 -38
-66 -49 -12 -12 -34 -27 -50 -35 -15 -8 -35 -20 -43 -27 -26 -23 -114 -83
-135 -92 -11 -5 -51 -32 -90 -61 -38 -29 -80 -56 -92 -61 -13 -5 -23 -13 -23
-19 0 -5 -5 -10 -11 -10 -6 0 -36 -18 -66 -40 -31 -22 -61 -40 -66 -40 -6 0
-18 -7 -28 -16 -10 -9 -31 -23 -47 -32 -17 -10 -49 -27 -72 -40 -22 -13 -50
-32 -60 -42 -11 -11 -25 -20 -31 -20 -7 0 -35 -15 -63 -32 -67 -43 -79 -50
-153 -93 -34 -19 -65 -40 -68 -45 -3 -4 -22 -14 -43 -21 -20 -6 -39 -15 -42
-19 -3 -4 -25 -18 -50 -30 -25 -13 -56 -31 -69 -41 -13 -11 -31 -19 -41 -19
-9 0 -25 -9 -35 -20 -10 -11 -26 -20 -35 -20 -9 0 -30 -11 -46 -25 -16 -14
-37 -25 -46 -25 -10 0 -18 -4 -18 -9 0 -4 -28 -20 -62 -35 -35 -15 -70 -31
-78 -36 -24 -16 -253 -128 -282 -139 -16 -6 -28 -15 -28 -20 0 -5 -14 -12 -31
-16 -17 -4 -61 -25 -98 -46 -38 -21 -73 -39 -79 -39 -6 0 -23 -7 -39 -15 -15
-8 -53 -25 -83 -39 -30 -13 -84 -38 -120 -54 -36 -16 -87 -40 -115 -52 -27
-12 -64 -28 -82 -36 -17 -8 -36 -14 -43 -14 -6 0 -23 -9 -37 -20 -14 -11 -31
-20 -38 -20 -7 0 -26 -7 -41 -15 -16 -8 -36 -15 -45 -15 -9 0 -27 -8 -40 -18
-13 -10 -46 -25 -72 -32 -27 -7 -65 -21 -85 -32 -20 -10 -42 -18 -49 -18 -12
0 -65 -21 -113 -45 -14 -7 -40 -16 -59 -20 -18 -4 -48 -15 -65 -25 -17 -10
-57 -25 -88 -34 -31 -9 -60 -21 -63 -26 -3 -6 -15 -10 -26 -10 -10 0 -36 -9
-56 -20 -21 -11 -46 -20 -56 -20 -10 0 -35 -9 -57 -20 -22 -11 -50 -20 -62
-20 -13 -1 -41 -9 -63 -20 -22 -11 -51 -20 -65 -20 -14 0 -38 -9 -55 -20 -16
-11 -45 -20 -63 -20 -19 0 -45 -9 -59 -20 -14 -11 -36 -20 -49 -20 -14 0 -32
-4 -42 -9 -26 -15 -112 -41 -166 -52 -27 -6 -59 -17 -71 -25 -12 -8 -46 -17
-75 -21 -28 -3 -58 -13 -66 -21 -8 -8 -36 -17 -62 -19 -26 -3 -81 -15 -122
-28 -105 -32 -204 -55 -233 -55 -13 0 -41 -7 -60 -15 -20 -8 -54 -15 -75 -15
-21 0 -42 -4 -48 -10 -5 -5 -56 -16 -112 -24 -56 -8 -106 -17 -111 -20 -25
-16 -445 -70 -671 -86 -80 -6 -151 -13 -158 -15 -14 -5 -181 -30 -272 -40 -30
-4 -71 -11 -90 -16 -19 -5 -78 -14 -130 -19 -52 -5 -126 -14 -165 -19 -178
-25 -244 -32 -450 -47 -121 -9 -258 -18 -305 -22 -47 -3 -355 -6 -685 -6 -596
-1 -1069 17 -1150 43 -29 9 -86 16 -315 42 -58 6 -148 18 -200 26 -52 8 -142
20 -200 28 -157 20 -527 85 -720 126 -263 57 -327 71 -355 81 -16 6 -55 14
-86 18 -30 4 -65 12 -76 18 -11 6 -49 18 -84 26 -119 26 -194 46 -232 61 -20
8 -47 15 -60 15 -12 1 -40 9 -62 20 -22 11 -52 19 -67 20 -15 0 -58 12 -95 26
-37 14 -87 30 -110 34 -24 5 -56 16 -72 25 -17 8 -40 15 -53 15 -13 0 -40 9
-61 20 -20 11 -46 20 -57 20 -11 0 -46 11 -78 24 -31 13 -86 32 -122 41 -36
10 -72 24 -81 32 -8 7 -26 13 -40 13 -13 0 -35 7 -49 15 -36 21 -38 21 -120
46 -41 12 -82 27 -90 34 -8 7 -33 18 -55 24 -37 11 -95 35 -203 82 -23 11 -49
19 -56 19 -7 0 -25 9 -39 20 -14 11 -31 20 -39 20 -7 0 -30 9 -51 20 -20 11
-45 20 -56 20 -10 0 -29 9 -43 19 -13 11 -38 23 -53 27 -36 9 -182 82 -190 94
-4 6 -19 10 -34 10 -15 0 -36 9 -46 20 -10 11 -23 20 -29 20 -10 0 -125 56
-181 88 -11 6 -36 18 -55 27 -19 8 -46 22 -60 29 -14 8 -36 19 -50 26 -14 6
-52 26 -85 45 -33 18 -71 39 -85 44 -14 6 -32 16 -40 21 -8 6 -33 19 -55 30
-22 11 -67 36 -100 55 -33 19 -76 43 -95 54 -107 57 -149 83 -160 96 -7 8 -19
15 -27 15 -8 0 -34 13 -58 30 -24 16 -55 34 -69 40 -14 5 -26 14 -26 19 0 5
-10 13 -22 17 -13 4 -37 17 -54 30 -17 13 -35 24 -40 24 -5 0 -29 16 -53 35
-24 19 -48 35 -53 35 -5 0 -30 16 -55 35 -25 19 -50 35 -56 35 -6 0 -17 7 -26
15 -15 15 -79 58 -148 100 -38 23 -147 99 -228 160 -61 45 -123 86 -142 95
-13 5 -23 14 -23 20 0 6 -12 16 -27 23 -16 6 -40 24 -55 40 -15 15 -31 27 -36
27 -5 0 -30 18 -55 40 -25 22 -49 40 -54 40 -5 0 -16 8 -25 18 -24 24 -49 45
-69 57 -9 6 -33 25 -53 43 -19 17 -38 32 -41 32 -4 0 -18 11 -33 25 -58 52
-110 95 -116 95 -4 0 -21 16 -39 35 -17 19 -35 35 -39 35 -4 0 -18 10 -31 23
-12 12 -43 38 -67 57 -24 19 -53 44 -65 55 -13 11 -49 43 -81 70 -32 28 -81
70 -108 94 -244 210 -671 642 -985 995 -15 15 -37 41 -51 56 -55 60 -137 155
-163 192 -16 21 -33 38 -38 38 -5 0 -9 5 -9 11 0 7 -17 31 -38 54 -69 79 -112
133 -112 142 0 4 -14 22 -31 38 -17 17 -37 42 -45 58 -8 15 -19 27 -24 27 -5
0 -11 8 -14 18 -3 9 -21 34 -38 54 -34 38 -95 118 -113 148 -9 16 -51 74 -90
125 -17 22 -33 44 -122 175 -32 47 -63 90 -70 95 -7 6 -17 21 -23 35 -5 14
-26 48 -45 75 -20 28 -40 57 -45 65 -5 8 -25 38 -45 65 -19 28 -39 59 -44 70
-5 11 -35 58 -65 105 -31 46 -56 90 -56 97 0 7 -4 13 -8 13 -5 0 -22 25 -37
55 -16 30 -32 55 -36 55 -4 0 -14 17 -23 38 -9 20 -35 66 -57 102 -38 60 -77
127 -117 205 -8 17 -23 42 -34 57 -10 14 -18 33 -18 40 0 8 -9 23 -19 32 -10
10 -22 33 -25 52 -4 19 -10 34 -15 34 -4 0 -18 21 -30 48 -12 26 -26 54 -32
62 -5 8 -14 25 -19 38 -6 12 -14 32 -20 45 -5 12 -14 29 -19 37 -5 8 -19 34
-30 57 -11 23 -24 50 -30 60 -10 20 -65 140 -85 188 -7 17 -22 50 -33 75 -12
25 -32 70 -45 100 -14 30 -37 81 -52 113 -14 32 -26 60 -26 64 0 6 -25 63 -61
138 -10 22 -19 44 -19 48 0 5 -7 23 -15 40 -16 37 -44 108 -87 222 -16 44 -35
96 -43 115 -7 19 -22 62 -34 95 -12 33 -26 69 -31 80 -18 42 -140 427 -140
444 0 10 -3 21 -7 24 -10 10 -53 149 -53 172 0 11 -7 33 -15 49 -8 15 -15 34
-15 42 0 7 -9 42 -19 76 -39 127 -69 234 -79 278 -6 25 -24 97 -41 160 -17 63
-31 129 -31 145 0 17 -6 39 -14 50 -7 11 -17 49 -21 84 -4 35 -14 79 -21 97
-8 18 -14 53 -14 76 0 24 -9 75 -19 113 -11 39 -23 106 -27 150 -4 44 -11 93
-16 110 -11 34 -17 72 -47 295 -12 85 -24 162 -27 170 -4 8 -10 57 -15 108 -8
81 -18 174 -34 322 -17 151 -26 261 -30 380 -3 74 -8 194 -12 265 -10 192 -6
932 7 1145 6 102 17 293 25 425 8 132 21 269 30 305 8 36 15 97 15 135 0 39 9
115 19 170 18 91 24 132 51 320 4 33 13 83 19 110 7 28 16 88 22 135 5 47 15
96 20 110 12 27 34 135 50 240 6 36 16 76 23 90 7 14 16 49 19 79 4 29 11 58
16 65 6 6 15 43 21 81 6 37 14 73 18 79 4 6 12 34 18 61 21 98 56 220 65 230
5 5 9 22 9 38 0 16 7 43 15 60 8 18 24 66 35 107 37 131 59 200 85 265 21 54
46 129 59 175 6 25 17 55 24 67 6 12 12 32 12 45 0 13 9 34 20 48 11 14 20 34
20 45 0 11 9 38 20 60 11 22 19 47 20 55 0 9 6 24 13 35 7 11 24 54 37 95 13
41 32 86 42 99 10 13 18 34 18 46 0 12 16 54 35 94 19 39 35 76 35 81 0 5 14
40 31 77 79 172 103 222 130 276 16 32 29 67 29 77 0 11 9 24 20 30 11 6 20
18 20 27 0 21 86 199 100 208 5 3 10 16 10 29 0 13 9 31 20 41 11 10 20 28 20
41 0 13 6 27 13 31 8 4 28 38 45 75 17 36 36 69 42 73 5 3 10 14 10 24 0 10 9
26 20 36 11 10 20 24 20 31 0 8 15 37 33 66 18 29 38 64 45 78 7 14 21 39 32
55 10 17 34 59 52 94 18 35 39 66 46 68 6 3 12 11 12 18 0 15 182 311 214 348
9 9 16 21 16 26 0 5 18 33 40 62 22 30 40 57 40 61 0 5 8 16 18 26 9 10 40 51
67 91 28 40 62 87 78 106 15 18 27 36 27 39 0 8 18 31 43 54 9 9 17 20 17 24
0 8 86 118 100 128 4 3 13 16 20 29 12 24 61 91 93 126 39 44 103 123 117 144
8 13 31 40 50 62 19 21 62 71 95 110 33 40 77 89 98 110 20 21 37 39 37 42 0
26 613 635 839 833 25 22 68 59 96 84 28 25 78 68 110 95 32 28 72 62 89 77
69 61 163 136 251 202 33 25 67 51 75 59 33 30 149 115 230 171 19 13 45 33
57 45 12 12 27 21 33 21 6 0 33 18 59 40 26 22 50 40 54 40 4 0 15 7 25 16 20
19 163 113 200 133 15 8 42 27 60 43 18 15 39 28 46 28 7 0 25 11 40 25 15 14
32 25 37 25 6 0 31 16 56 35 25 19 50 35 55 35 5 0 24 11 42 25 18 14 37 25
41 25 4 0 23 11 40 24 18 14 44 28 59 32 15 4 30 12 33 19 2 7 19 19 36 26 18
7 50 24 72 38 22 14 73 42 113 63 41 21 86 47 102 58 15 11 35 20 43 20 8 0
25 8 38 19 13 10 35 22 49 26 14 4 36 16 49 26 13 11 30 19 37 19 7 0 34 13
59 29 25 16 61 32 79 35 19 4 37 13 40 21 3 8 21 17 40 21 20 3 36 10 36 14 0
5 10 12 23 15 12 4 51 20 87 37 36 17 90 41 120 55 30 14 72 34 92 44 20 11
44 19 53 19 9 0 28 9 43 19 15 11 43 22 63 25 21 4 42 13 49 21 7 8 17 15 22
15 5 0 40 12 76 26 37 14 92 35 122 46 30 12 78 32 106 45 28 12 57 23 65 23
15 0 109 34 152 56 16 8 36 14 45 14 15 0 126 37 205 69 16 6 38 11 50 11 12
0 36 7 52 16 17 9 46 20 65 25 54 12 221 60 260 74 52 19 118 35 179 45 29 5
58 13 64 19 6 6 21 11 34 11 12 0 67 12 120 26 54 14 125 30 158 34 33 5 92
16 130 25 39 10 122 25 185 36 485 79 601 96 750 110 58 5 115 14 128 19 13 6
39 10 58 10 19 0 65 4 102 10 349 49 1294 86 1406 54 27 -7 52 -12 56 -9 13 8
474 -15 595 -31 66 -8 163 -20 215 -25 226 -25 484 -62 575 -84 33 -7 78 -16
100 -19 22 -3 60 -10 85 -16 25 -6 61 -13 80 -15 46 -7 212 -44 275 -60 28 -8
70 -18 95 -24 25 -5 81 -19 125 -31 44 -12 108 -28 141 -35 34 -8 79 -21 100
-29 22 -8 57 -17 78 -21 21 -4 48 -12 60 -20 12 -7 43 -15 70 -19 27 -3 54
-10 60 -15 6 -5 44 -18 85 -29 40 -12 84 -28 96 -36 13 -9 43 -18 67 -22 24
-4 50 -13 59 -21 9 -8 34 -17 55 -20 21 -4 52 -14 69 -24 16 -10 50 -23 75
-29 25 -7 65 -22 90 -34 25 -12 68 -28 95 -35 28 -7 65 -21 82 -31 18 -11 52
-24 75 -30 24 -6 63 -21 88 -34 25 -13 58 -27 74 -30 16 -4 45 -18 65 -32 19
-13 46 -24 58 -24 12 0 44 -13 70 -30 26 -16 52 -30 57 -30 6 0 22 -6 36 -14
101 -54 146 -76 171 -81 15 -4 33 -12 39 -20 6 -8 25 -17 41 -20 16 -4 29 -10
29 -14 0 -4 17 -13 38 -20 20 -8 55 -27 76 -42 22 -16 47 -29 57 -29 9 0 27
-8 40 -18 13 -10 53 -34 89 -52 36 -19 79 -43 95 -55 17 -12 41 -26 55 -30 14
-4 43 -19 65 -33 22 -14 63 -38 91 -54 28 -15 75 -44 104 -63 29 -19 56 -35
60 -35 5 0 24 -13 42 -30 18 -16 37 -30 43 -30 11 0 91 -51 115 -73 8 -8 48
-34 88 -57 39 -24 72 -47 72 -51 0 -4 24 -21 53 -37 28 -17 63 -41 77 -54 14
-13 39 -32 57 -43 57 -35 231 -166 255 -190 13 -14 28 -25 33 -25 6 0 30 -18
55 -40 25 -22 51 -40 58 -40 6 0 12 -4 12 -8 0 -5 34 -35 75 -67 41 -33 75
-63 75 -67 0 -4 5 -8 11 -8 6 0 27 -16 47 -35 20 -19 80 -72 132 -117 175
-153 152 -132 371 -344 46 -45 125 -125 174 -179 50 -53 106 -114 125 -134 19
-20 66 -72 104 -116 38 -44 89 -104 115 -134 81 -94 85 -99 121 -147 19 -26
44 -57 56 -68 12 -12 33 -40 48 -63 14 -24 30 -43 35 -43 6 0 13 -10 17 -22 4
-13 12 -27 18 -33 19 -16 96 -121 96 -131 0 -5 13 -21 29 -36 15 -16 34 -40
42 -55 8 -15 25 -38 37 -52 13 -14 30 -40 37 -58 8 -18 18 -33 23 -33 5 0 18
-19 30 -43 12 -24 31 -52 42 -62 11 -10 20 -24 20 -31 0 -7 11 -25 25 -40 14
-15 25 -32 25 -39 0 -6 13 -26 30 -45 16 -18 32 -42 36 -52 3 -10 21 -41 40
-69 19 -28 34 -57 34 -65 0 -8 4 -14 9 -14 5 0 26 -33 47 -72 20 -40 40 -75
43 -78 4 -3 19 -28 32 -56 14 -28 35 -64 46 -80 17 -24 78 -139 178 -334 10
-19 24 -46 32 -60 16 -31 47 -95 106 -220 86 -182 96 -205 103 -235 4 -16 13
-38 22 -47 8 -10 26 -50 40 -90 13 -40 31 -82 38 -93 8 -11 14 -26 14 -33 0
-8 6 -28 14 -45 8 -18 26 -63 40 -102 15 -38 33 -83 41 -98 8 -16 15 -36 15
-46 0 -9 11 -39 24 -67 13 -27 31 -78 40 -113 9 -36 20 -69 25 -75 5 -6 16
-36 24 -66 9 -30 23 -73 31 -95 8 -22 15 -51 16 -65 0 -14 6 -35 14 -46 8 -11
17 -38 21 -60 4 -21 18 -71 31 -111 13 -39 24 -81 24 -93 0 -12 11 -54 24 -93
14 -40 28 -99 32 -132 3 -33 11 -65 16 -71 5 -7 15 -50 22 -97 8 -47 19 -93
24 -104 6 -10 16 -57 22 -103 6 -47 20 -121 30 -165 11 -44 23 -131 29 -193 5
-62 14 -118 20 -125 5 -7 13 -73 17 -147 3 -74 12 -161 20 -192 8 -31 19 -137
24 -235 6 -98 15 -225 21 -283 15 -151 22 -949 9 -1030 -5 -36 -15 -121 -21
-190 -35 -437 -50 -548 -112 -890 -4 -21 -38 -179 -77 -355 -6 -27 -17 -66
-24 -85 -8 -19 -19 -64 -25 -100 -7 -36 -18 -83 -26 -105 -7 -22 -25 -87 -40
-145 -15 -58 -35 -127 -46 -155 -10 -27 -23 -72 -29 -98 -6 -27 -17 -58 -24
-70 -8 -12 -17 -38 -21 -57 -4 -19 -13 -48 -20 -65 -8 -16 -26 -66 -40 -110
-15 -44 -31 -84 -36 -90 -5 -5 -9 -20 -9 -35 0 -14 -9 -40 -20 -58 -11 -18
-20 -38 -20 -45 0 -7 -9 -29 -20 -50 -11 -20 -20 -46 -20 -56 0 -11 -4 -23
-10 -26 -5 -3 -15 -25 -21 -48 -6 -23 -19 -52 -30 -65 -10 -14 -19 -32 -19
-40 0 -8 -24 -65 -54 -126 -30 -61 -60 -124 -67 -140 -21 -44 -30 -62 -81
-165 -27 -52 -48 -100 -48 -106 0 -7 -9 -20 -20 -30 -11 -10 -20 -26 -20 -35
0 -10 -8 -28 -18 -41 -10 -13 -30 -49 -46 -79 -16 -30 -46 -84 -67 -120 -21
-36 -45 -79 -53 -96 -8 -17 -22 -36 -30 -44 -9 -7 -16 -18 -16 -25 0 -6 -18
-37 -40 -69 -22 -31 -40 -59 -40 -62 0 -3 -15 -26 -32 -52 -37 -52 -45 -66
-70 -110 -10 -17 -29 -43 -43 -58 -14 -15 -25 -32 -25 -39 0 -7 -11 -24 -25
-39 -14 -15 -25 -29 -25 -32 0 -3 -18 -29 -40 -59 -22 -30 -40 -59 -40 -65 0
-5 -4 -10 -9 -10 -5 0 -26 -25 -46 -55 -21 -30 -42 -55 -47 -55 -4 0 -8 -6 -8
-12 0 -7 -15 -30 -33 -50 -17 -21 -50 -61 -72 -89 -22 -29 -51 -65 -65 -79
-14 -15 -54 -64 -90 -109 -36 -44 -68 -81 -72 -81 -5 0 -8 -6 -8 -13 0 -6 -16
-27 -35 -44 -19 -18 -35 -35 -35 -39 0 -27 -467 -497 -665 -669 -38 -33 -76
-68 -84 -77 -9 -10 -19 -18 -24 -18 -4 0 -23 -15 -41 -32 -18 -18 -53 -49 -77
-68 -24 -19 -50 -39 -57 -45 -7 -5 -21 -17 -30 -26 -9 -8 -46 -37 -82 -64 -36
-26 -66 -52 -68 -57 -2 -4 -10 -8 -17 -8 -8 0 -19 -8 -24 -19 -6 -10 -25 -25
-43 -34 -18 -9 -44 -27 -57 -41 -14 -14 -29 -26 -34 -26 -5 0 -27 -16 -50 -35
-22 -19 -46 -35 -53 -35 -7 0 -25 -11 -40 -25 -15 -14 -33 -25 -39 -25 -7 0
-15 -7 -19 -15 -3 -8 -11 -15 -17 -15 -6 0 -33 -16 -59 -35 -26 -19 -51 -35
-55 -35 -4 0 -29 -16 -55 -35 -26 -19 -55 -35 -64 -35 -9 0 -19 -7 -23 -16 -3
-9 -27 -25 -52 -36 -25 -11 -59 -30 -76 -42 -16 -13 -41 -27 -55 -31 -14 -4
-30 -12 -37 -17 -25 -20 -124 -77 -146 -84 -12 -4 -33 -15 -46 -25 -13 -11
-31 -19 -39 -19 -9 0 -23 -6 -31 -14 -28 -23 -198 -106 -220 -106 -6 0 -11 -4
-11 -9 0 -5 -17 -15 -37 -22 -36 -11 -107 -43 -248 -109 -33 -15 -73 -31 -90
-35 -16 -3 -38 -15 -48 -26 -10 -10 -26 -19 -35 -19 -22 0 -119 -35 -136 -49
-7 -6 -37 -17 -67 -25 -30 -8 -72 -22 -94 -30 -22 -8 -48 -15 -58 -16 -10 0
-28 -7 -41 -15 -12 -8 -42 -19 -67 -24 -46 -10 -122 -32 -174 -50 -50 -17
-276 -73 -330 -82 -27 -4 -75 -14 -105 -22 -30 -9 -82 -18 -115 -22 -33 -4
-85 -13 -115 -20 -30 -8 -109 -21 -175 -30 -152 -22 -205 -30 -280 -45 -33 -6
-105 -15 -160 -20 -55 -4 -154 -15 -220 -23 -185 -24 -316 -37 -449 -42 -66
-3 -168 -10 -226 -15 -167 -16 -284 -16 -615 -2 -200 8 -351 20 -425 32 -63
10 -137 21 -165 24 -112 13 -254 34 -265 41 -6 4 -43 11 -81 16 -39 5 -91 15
-117 23 -61 20 -194 54 -257 67 -27 6 -61 17 -75 24 -14 7 -61 21 -105 30 -44
10 -91 23 -105 30 -38 18 -120 45 -170 56 -24 5 -49 14 -54 19 -6 6 -17 10
-26 10 -8 0 -31 8 -50 18 -19 10 -61 24 -92 31 -32 7 -58 16 -58 21 0 5 -15
12 -32 15 -18 4 -42 14 -53 21 -11 8 -29 14 -41 14 -12 0 -32 8 -45 19 -13 10
-40 22 -59 26 -19 4 -44 13 -55 20 -11 7 -34 16 -52 20 -17 3 -37 13 -44 21
-6 8 -17 14 -24 14 -7 0 -37 12 -66 28 -30 15 -71 34 -91 41 -21 8 -38 18 -38
22 0 4 -15 11 -32 15 -18 3 -44 15 -57 25 -13 11 -32 19 -42 19 -10 0 -21 5
-25 11 -3 6 -26 19 -51 30 -25 11 -57 28 -72 38 -14 10 -37 22 -51 26 -14 4
-34 15 -45 25 -11 10 -31 21 -45 25 -14 4 -38 18 -55 30 -16 12 -57 37 -90 55
-33 19 -75 45 -93 58 -18 14 -45 32 -61 41 -65 37 -96 58 -126 84 -18 15 -37
27 -42 27 -4 0 -30 18 -57 40 -26 22 -54 40 -61 40 -7 0 -15 4 -17 8 -1 4 -47
40 -100 80 -53 40 -102 80 -108 88 -7 7 -18 14 -24 14 -6 0 -19 8 -27 18 -9 9
-40 37 -69 62 -218 183 -420 372 -420 392 0 5 -5 8 -10 8 -6 0 -30 21 -53 46
-23 25 -69 74 -102 108 -33 34 -94 100 -135 146 -85 94 -83 91 -213 245 -18
22 -48 61 -67 88 -18 26 -37 47 -42 47 -4 0 -8 6 -8 14 0 7 -7 20 -16 27 -9 8
-28 32 -42 54 -13 22 -31 47 -38 55 -22 23 -83 113 -93 135 -5 11 -18 29 -30
39 -11 11 -21 24 -21 30 0 6 -16 31 -35 55 -19 24 -35 48 -35 53 0 5 -8 21
-18 36 -69 102 -92 140 -92 154 0 9 -6 21 -14 27 -8 7 -26 35 -41 64 -14 29
-38 72 -52 97 -39 68 -113 214 -113 223 0 5 -9 20 -20 34 -11 14 -20 33 -20
43 0 10 -9 29 -20 43 -11 14 -20 30 -20 37 0 11 -39 99 -81 183 -10 22 -19 44
-19 50 0 7 -7 25 -15 41 -8 15 -21 47 -29 70 -8 22 -24 66 -36 96 -12 30 -27
73 -35 95 -7 22 -25 74 -40 115 -30 84 -69 217 -80 270 -4 19 -11 40 -17 47
-5 6 -13 39 -19 73 -5 35 -16 75 -24 91 -8 15 -15 38 -15 51 0 13 -9 56 -20
96 -11 39 -20 88 -20 108 0 19 -5 45 -11 56 -6 12 -17 69 -25 127 -7 58 -18
132 -24 163 -5 31 -14 112 -20 180 -5 68 -15 161 -21 208 -8 55 -13 244 -13
535 -1 375 1 454 13 475 10 16 19 86 27 190 7 91 19 197 27 235 8 39 22 124
32 190 9 66 23 135 31 153 8 18 14 45 14 60 0 15 7 52 16 82 8 30 22 82 30
115 30 127 70 260 100 333 8 18 14 43 14 55 0 12 7 31 15 41 8 11 15 27 15 36
0 8 8 31 19 50 10 19 30 72 45 118 15 45 31 82 36 82 4 0 11 12 15 27 6 25 59
145 90 203 7 14 34 68 61 120 26 52 54 99 61 103 7 4 13 16 13 26 0 9 11 32
25 51 14 19 25 39 25 44 0 6 16 31 35 55 19 24 35 50 35 57 0 8 16 36 35 63
19 26 35 53 35 60 0 6 4 11 10 11 5 0 18 15 27 33 10 19 36 60 58 92 22 31 45
65 50 74 6 9 25 32 43 51 18 19 35 44 38 55 4 11 22 35 40 52 19 18 34 36 34
39 0 6 44 59 95 116 14 15 25 30 25 33 0 4 16 21 35 39 19 19 35 36 35 40 0 3
17 24 38 45 20 21 55 59 76 82 134 150 522 529 540 529 4 0 21 16 39 35 17 19
36 35 40 35 5 0 30 18 56 40 26 22 53 40 59 40 7 0 12 4 12 10 0 5 17 18 38
29 20 11 50 31 66 45 16 14 34 26 39 26 6 0 17 7 26 15 21 20 136 95 146 95 4
0 20 11 37 25 16 14 36 25 44 25 8 0 33 14 56 30 22 17 47 30 55 30 8 0 31 11
51 25 20 14 43 25 50 25 8 0 25 9 39 20 14 11 34 20 44 20 10 0 35 11 55 25
20 14 43 25 52 25 8 0 31 9 51 20 37 20 99 43 161 61 19 6 49 16 65 24 45 21
124 45 176 55 26 5 55 13 65 18 23 12 181 52 249 62 28 4 64 13 80 19 33 12
219 49 307 61 31 4 60 10 65 13 4 3 40 8 78 11 176 16 201 19 244 32 28 8 126
17 251 21 255 10 274 10 495 0 163 -7 223 -13 420 -48 33 -5 87 -14 120 -19
33 -5 78 -16 100 -24 22 -8 69 -20 105 -26 36 -7 88 -21 115 -30 28 -10 77
-26 110 -36 33 -9 74 -23 92 -31 17 -7 37 -13 45 -13 7 0 27 -9 45 -19 17 -11
49 -23 70 -27 21 -3 45 -12 53 -19 20 -15 78 -42 112 -50 15 -4 32 -13 39 -21
6 -8 17 -14 23 -14 6 -1 29 -9 51 -20 22 -11 44 -19 49 -20 5 0 17 -6 25 -14
9 -7 45 -26 81 -42 36 -16 70 -34 75 -40 6 -6 32 -20 58 -30 27 -11 60 -29 74
-42 13 -12 43 -32 66 -43 23 -12 58 -35 78 -50 20 -16 42 -29 48 -29 6 0 31
-18 55 -40 24 -22 48 -40 53 -40 25 0 463 -413 463 -436 0 -4 15 -21 33 -38
44 -41 146 -162 177 -208 14 -21 28 -38 31 -38 4 0 22 -24 40 -52 19 -29 39
-57 45 -63 16 -15 84 -122 84 -133 0 -5 7 -15 16 -22 8 -8 23 -30 33 -49 10
-20 29 -56 43 -81 52 -91 68 -125 68 -141 0 -9 6 -19 14 -22 7 -3 18 -26 25
-51 6 -24 15 -48 21 -51 5 -3 10 -13 10 -22 0 -8 9 -26 20 -40 11 -14 20 -37
20 -51 0 -14 8 -44 19 -66 10 -23 23 -59 29 -81 29 -109 45 -164 58 -205 8
-25 14 -59 14 -76 0 -17 7 -51 15 -74 8 -23 15 -61 15 -84 0 -22 7 -68 15
-101 47 -191 48 -876 3 -1100 -9 -44 -24 -116 -32 -160 -8 -44 -24 -105 -34
-135 -11 -30 -32 -91 -48 -135 -15 -44 -35 -91 -44 -105 -9 -14 -25 -45 -35
-70 -10 -25 -24 -52 -30 -60 -6 -8 -17 -26 -23 -40 -12 -24 -25 -47 -86 -147
-16 -26 -42 -64 -58 -83 -16 -19 -44 -53 -63 -75 -18 -22 -52 -62 -75 -90 -53
-63 -182 -187 -237 -227 -24 -17 -43 -35 -43 -40 0 -4 -6 -8 -13 -8 -8 0 -24
-11 -37 -25 -13 -14 -28 -25 -33 -25 -5 0 -26 -13 -46 -29 -20 -15 -46 -31
-59 -35 -12 -4 -26 -16 -32 -26 -5 -10 -21 -21 -36 -24 -15 -4 -41 -18 -58
-31 -17 -13 -50 -28 -72 -34 -23 -6 -47 -18 -54 -25 -6 -8 -26 -18 -43 -22
-18 -3 -52 -16 -77 -29 -25 -12 -72 -27 -105 -34 -33 -7 -100 -22 -150 -34
-79 -19 -115 -22 -300 -20 -115 1 -237 6 -270 12 -89 15 -184 40 -209 55 -11
8 -36 17 -55 21 -18 4 -48 15 -65 25 -17 10 -51 26 -76 36 -55 21 -110 60
-110 78 0 24 26 36 105 47 43 6 95 19 114 28 20 10 56 27 81 39 116 51 160 74
193 100 19 15 45 34 58 42 34 22 259 243 259 255 0 6 8 18 18 27 40 39 52 57
97 143 26 50 51 95 56 101 5 6 14 38 20 70 6 33 16 62 21 65 18 12 30 191 24
367 -5 145 -9 179 -26 212 -11 22 -20 49 -20 61 0 31 -88 219 -102 219 -5 0
-8 5 -8 11 0 28 -166 205 -245 263 -22 16 -47 36 -55 43 -25 23 -113 82 -147
99 -18 9 -37 22 -44 30 -6 8 -16 14 -21 14 -5 0 -29 14 -53 30 -24 17 -50 30
-58 30 -8 0 -26 9 -40 20 -14 11 -32 20 -40 20 -8 0 -26 9 -40 20 -14 11 -31
20 -39 20 -7 0 -35 11 -63 25 -27 13 -58 25 -67 25 -17 0 -66 19 -118 45 -14
7 -45 16 -69 20 -24 4 -59 14 -77 21 -18 8 -47 14 -64 14 -17 0 -39 4 -48 9
-36 19 -257 31 -363 20 -99 -10 -221 -38 -284 -64 -16 -8 -46 -20 -67 -29 -20
-9 -43 -16 -51 -16 -8 0 -17 -7 -21 -15 -3 -8 -11 -15 -18 -15 -7 0 -29 -9
-48 -20 -19 -11 -59 -31 -88 -45 -29 -14 -58 -30 -65 -35 -19 -16 -111 -80
-124 -86 -45 -22 -403 -378 -403 -401 0 -4 -18 -28 -40 -54 -22 -26 -40 -50
-40 -53 0 -3 -15 -27 -33 -53 -19 -27 -37 -56 -40 -65 -4 -10 -11 -18 -16 -18
-5 0 -16 -17 -24 -37 -8 -21 -24 -47 -34 -58 -10 -11 -26 -36 -35 -55 -10 -19
-22 -42 -27 -50 -25 -42 -91 -183 -91 -196 0 -8 -4 -14 -9 -14 -5 0 -14 -21
-20 -46 -7 -25 -18 -56 -26 -67 -17 -27 -55 -140 -55 -165 0 -10 -9 -43 -20
-75 -69 -195 -93 -610 -51 -877 27 -174 89 -418 120 -473 10 -18 22 -49 26
-68 4 -18 13 -43 20 -54 7 -11 16 -35 20 -53 4 -18 13 -36 21 -39 7 -3 16 -20
20 -38 3 -19 12 -36 19 -38 7 -3 16 -18 19 -34 4 -15 13 -35 21 -43 12 -14
125 -200 125 -206 0 -2 11 -15 25 -30 14 -15 25 -30 25 -35 0 -4 14 -23 30
-41 17 -18 30 -38 30 -45 0 -6 7 -16 16 -21 8 -5 23 -20 32 -34 64 -97 357
-387 498 -494 27 -20 53 -43 57 -51 4 -7 14 -13 21 -13 7 0 32 -18 56 -40 24
-22 49 -40 56 -40 7 0 17 -6 21 -14 10 -16 183 -126 199 -126 7 0 25 -10 41
-23 26 -22 93 -57 108 -57 3 0 21 -11 38 -23 18 -13 55 -32 82 -42 28 -10 52
-22 55 -26 7 -11 193 -87 252 -104 25 -7 55 -18 65 -23 10 -5 41 -14 68 -21
28 -7 64 -18 81 -26 18 -8 60 -21 95 -30 35 -8 102 -23 149 -34 47 -11 101
-21 121 -21 19 0 40 -5 46 -11 6 -6 92 -20 190 -31 241 -28 771 -31 908 -5 50
9 144 26 210 37 66 11 156 29 200 40 44 11 90 20 102 20 12 0 24 4 27 9 3 5
30 14 58 21 29 6 69 17 88 24 65 24 105 38 150 51 25 7 59 20 75 29 17 9 40
16 51 16 12 0 27 6 33 14 7 8 34 20 61 26 28 7 50 16 50 21 0 5 6 9 13 9 7 0
39 13 72 30 33 16 65 30 71 30 6 0 27 11 47 24 19 13 49 27 66 31 17 3 33 11
37 16 3 6 29 21 57 34 29 14 75 38 102 54 28 16 65 37 82 45 18 8 48 26 65 39
18 14 43 28 54 31 12 4 29 15 39 26 10 11 22 20 28 20 5 0 31 16 57 35 26 19
53 35 59 35 6 0 14 7 18 15 3 9 17 22 32 29 14 8 38 25 52 37 14 13 41 35 60
48 99 72 380 343 530 513 50 57 95 105 100 106 5 2 9 9 9 15 0 7 17 31 38 54
20 22 57 68 82 102 24 33 50 63 57 65 7 3 13 11 13 18 0 11 13 29 60 85 5 7
10 16 10 21 0 5 9 17 20 27 11 10 23 27 26 39 4 11 22 41 40 65 19 24 34 47
34 51 0 5 16 31 35 60 19 29 35 57 35 64 0 6 9 19 20 29 11 9 20 24 20 33 0 9
9 27 20 41 11 14 20 32 20 39 0 8 15 35 34 61 18 27 37 63 41 81 3 17 10 32
15 32 5 0 12 10 15 23 13 41 54 125 64 132 6 3 11 19 11 34 0 16 9 40 20 53
10 14 29 56 41 94 13 38 29 78 36 89 7 11 13 29 13 40 0 11 8 36 19 55 10 19
23 58 29 85 6 28 18 64 26 80 9 17 16 38 16 47 0 9 4 27 9 40 13 35 58 213 75
298 8 41 23 118 34 170 11 52 23 135 27 184 3 49 12 101 20 116 12 24 40 428
38 565 -2 133 -4 196 -13 397 -6 120 -17 255 -24 300 -8 46 -17 121 -21 168
-4 47 -14 97 -21 112 -8 15 -14 40 -14 55 0 24 -19 120 -49 258 -5 22 -19 83
-30 136 -11 53 -24 107 -29 120 -11 27 -30 91 -62 199 -11 41 -27 91 -35 110
-8 19 -19 54 -25 77 -6 23 -17 54 -25 70 -8 15 -15 33 -15 40 0 12 -10 37 -50
128 -10 22 -21 54 -25 72 -3 17 -13 37 -21 44 -8 6 -14 18 -14 26 0 8 -16 49
-36 91 -20 42 -45 97 -56 122 -11 25 -24 52 -29 60 -5 8 -14 26 -20 40 -6 14
-16 34 -22 45 -5 11 -13 27 -17 35 -4 8 -14 29 -24 45 -9 17 -28 53 -42 80
-43 83 -125 225 -164 285 -16 25 -44 69 -61 98 -17 28 -35 52 -40 52 -5 0 -9
5 -9 11 0 6 -17 34 -37 62 -21 28 -42 59 -48 68 -31 52 -88 129 -96 129 -5 0
-9 5 -9 10 0 10 -204 270 -253 324 -196 212 -193 209 -477 489 -21 20 -40 37
-43 37 -2 0 -23 18 -46 39 -23 22 -74 65 -114 97 -39 32 -83 69 -97 82 -14 13
-42 33 -62 43 -21 11 -38 24 -38 29 0 6 -7 10 -15 10 -7 0 -18 6 -22 13 -4 8
-15 17 -23 20 -8 4 -42 27 -75 52 -33 25 -71 50 -84 55 -13 6 -37 22 -53 35
-16 14 -35 25 -41 25 -7 0 -30 14 -51 30 -22 17 -45 30 -52 30 -6 0 -18 7 -25
16 -7 9 -37 28 -66 41 -29 14 -53 29 -53 33 0 5 -15 14 -34 20 -19 6 -39 17
-46 25 -6 7 -23 16 -37 20 -15 3 -38 15 -51 26 -14 11 -44 29 -66 39 -23 11
-52 27 -66 34 -14 8 -36 19 -50 25 -14 6 -32 15 -40 20 -17 11 -127 61 -177
81 -18 7 -33 16 -33 21 0 5 -8 9 -17 9 -10 1 -36 9 -58 20 -22 11 -46 19 -53
20 -8 0 -25 9 -39 20 -14 11 -37 20 -52 20 -14 0 -44 12 -66 25 -22 14 -51 25
-64 25 -13 0 -44 11 -70 24 -25 14 -69 30 -98 36 -28 6 -60 18 -70 25 -10 8
-25 15 -34 15 -9 0 -42 9 -75 20 -32 12 -115 36 -184 56 -69 19 -147 41 -175
49 -78 23 -243 62 -320 76 -38 7 -108 21 -155 31 -47 11 -101 21 -120 24 -19
3 -82 12 -140 20 -376 54 -440 58 -925 58 -242 -1 -474 -4 -515 -7 -394 -29
-457 -35 -483 -49 -10 -5 -72 -13 -138 -18 -66 -5 -128 -14 -139 -20 -10 -5
-39 -10 -64 -10 -25 0 -72 -9 -103 -19 -32 -11 -82 -22 -112 -26 -30 -3 -63
-13 -75 -21 -11 -8 -40 -14 -64 -14 -24 0 -56 -6 -70 -14 -29 -14 -196 -57
-224 -56 -10 0 -32 -9 -50 -20 -18 -11 -46 -20 -63 -20 -16 0 -43 -7 -60 -16
-16 -8 -53 -22 -81 -29 -29 -7 -65 -20 -80 -28 -16 -8 -47 -18 -69 -22 -21 -3
-51 -15 -66 -26 -15 -10 -53 -25 -85 -33 -33 -8 -81 -26 -108 -40 -27 -14 -57
-26 -65 -26 -9 0 -32 -8 -51 -18 -19 -11 -50 -22 -69 -26 -19 -3 -42 -12 -50
-20 -9 -7 -43 -23 -76 -36 -33 -12 -67 -26 -75 -31 -8 -5 -26 -14 -40 -21
-106 -48 -197 -91 -210 -99 -8 -5 -63 -33 -122 -63 -58 -30 -123 -66 -144 -80
-21 -14 -45 -26 -53 -26 -8 0 -21 -7 -30 -16 -17 -16 -181 -117 -216 -133 -12
-5 -27 -16 -34 -25 -7 -9 -21 -16 -30 -16 -10 0 -28 -11 -41 -25 -13 -14 -27
-25 -32 -25 -9 0 -105 -62 -128 -83 -8 -8 -24 -19 -36 -25 -18 -9 -54 -37
-121 -92 -7 -6 -15 -10 -18 -10 -4 0 -30 -19 -59 -42 -29 -24 -63 -50 -76 -58
-12 -8 -33 -25 -46 -37 -14 -13 -28 -23 -32 -23 -5 0 -23 -16 -42 -35 -19 -19
-40 -35 -47 -35 -7 0 -16 -6 -20 -12 -4 -7 -39 -39 -78 -71 -107 -90 -159
-136 -241 -214 -42 -40 -77 -73 -79 -73 -4 0 -242 -239 -320 -321 -78 -84
-296 -328 -337 -380 -15 -19 -51 -63 -79 -99 -28 -36 -55 -66 -60 -68 -5 -2
-9 -10 -9 -18 0 -8 -7 -17 -15 -20 -8 -4 -15 -12 -15 -18 0 -7 -11 -23 -25
-36 -14 -13 -25 -28 -25 -34 0 -6 -12 -22 -26 -35 -14 -13 -32 -38 -41 -55 -9
-17 -19 -33 -23 -36 -13 -9 -100 -140 -100 -150 0 -6 -4 -10 -8 -10 -5 0 -16
-15 -26 -32 -29 -57 -41 -74 -59 -92 -9 -10 -17 -23 -17 -30 0 -7 -8 -22 -17
-34 -41 -48 -53 -67 -53 -79 0 -7 -8 -20 -19 -30 -10 -10 -22 -28 -25 -40 -4
-13 -23 -46 -42 -74 -19 -28 -34 -57 -34 -65 0 -8 -4 -14 -9 -14 -5 0 -15 -16
-22 -35 -7 -19 -16 -35 -20 -35 -4 0 -13 -17 -19 -37 -7 -21 -18 -45 -25 -53
-7 -8 -32 -52 -56 -97 -23 -46 -46 -83 -51 -83 -4 0 -8 -7 -8 -16 0 -8 -8 -32
-19 -52 -10 -20 -31 -64 -46 -97 -16 -33 -32 -67 -37 -75 -4 -8 -13 -26 -18
-40 -6 -14 -17 -37 -25 -52 -8 -14 -15 -35 -15 -46 0 -10 -8 -30 -18 -43 -9
-13 -29 -57 -42 -98 -14 -40 -31 -76 -37 -78 -7 -3 -13 -13 -13 -22 -1 -9 -9
-34 -20 -56 -11 -22 -19 -46 -20 -53 0 -8 -6 -28 -14 -45 -27 -64 -55 -144
-72 -202 -9 -33 -21 -67 -26 -75 -12 -21 -58 -176 -68 -231 -5 -26 -13 -55
-18 -65 -6 -11 -16 -45 -22 -77 -6 -32 -18 -70 -26 -85 -8 -15 -14 -42 -14
-60 0 -18 -7 -46 -15 -62 -8 -16 -20 -63 -26 -105 -5 -41 -17 -91 -24 -109 -8
-19 -19 -70 -25 -113 -18 -139 -29 -207 -44 -263 -9 -30 -20 -113 -25 -185 -5
-71 -14 -150 -20 -175 -43 -188 -62 -996 -35 -1530 15 -301 64 -804 83 -853 6
-16 11 -49 11 -75 0 -26 7 -78 16 -117 9 -38 22 -110 29 -160 7 -49 18 -106
23 -125 6 -19 18 -78 27 -130 10 -52 23 -113 30 -135 7 -22 16 -53 19 -70 6
-28 31 -125 61 -240 7 -27 25 -87 39 -132 14 -45 26 -90 26 -100 0 -10 7 -31
15 -47 8 -16 22 -56 31 -89 9 -34 21 -73 28 -87 7 -14 18 -45 24 -70 6 -25 20
-63 32 -85 11 -21 20 -46 20 -55 0 -9 16 -53 35 -99 19 -45 35 -88 35 -94 0
-7 11 -34 25 -62 13 -27 25 -57 25 -65 0 -8 14 -40 30 -70 17 -30 30 -60 30
-66 0 -12 31 -81 60 -136 11 -20 20 -46 20 -57 0 -11 4 -22 10 -26 10 -6 140
-272 140 -288 0 -6 6 -18 14 -26 8 -9 36 -56 62 -106 25 -49 56 -108 68 -130
11 -23 31 -54 42 -70 12 -17 29 -46 38 -65 27 -57 54 -103 64 -109 5 -3 20
-26 32 -51 12 -24 40 -67 61 -96 22 -28 39 -54 39 -58 0 -4 15 -28 33 -53 17
-25 43 -62 57 -83 14 -21 34 -50 45 -66 34 -51 238 -328 252 -344 7 -8 29 -35
49 -60 64 -80 109 -133 132 -157 12 -13 22 -27 22 -30 0 -3 19 -27 42 -53 24
-26 59 -66 78 -89 38 -45 54 -63 205 -227 130 -142 489 -500 590 -589 43 -38
96 -87 118 -107 21 -21 42 -38 45 -38 4 0 22 -16 39 -35 18 -19 35 -35 39 -35
4 0 28 -19 55 -42 59 -54 66 -59 164 -135 44 -35 87 -69 95 -77 8 -7 31 -24
50 -38 19 -13 97 -70 173 -126 76 -57 149 -107 163 -112 13 -5 24 -14 24 -20
0 -5 17 -18 38 -29 20 -11 61 -37 90 -58 28 -21 80 -56 115 -77 34 -21 80 -51
102 -66 22 -14 57 -34 77 -43 20 -10 40 -22 43 -27 4 -6 34 -24 68 -41 34 -18
66 -38 70 -45 4 -8 12 -14 17 -14 13 0 50 -17 95 -45 22 -13 73 -40 113 -59
40 -19 85 -44 101 -55 15 -11 40 -23 57 -27 16 -4 47 -20 68 -35 22 -16 45
-29 51 -29 7 0 45 -18 87 -40 41 -21 100 -48 130 -60 31 -11 62 -27 68 -35 7
-8 28 -17 49 -21 20 -4 50 -15 67 -25 18 -11 56 -28 85 -38 30 -10 70 -28 89
-40 19 -11 44 -21 55 -21 11 0 34 -8 50 -18 17 -11 55 -27 85 -37 30 -9 64
-23 76 -30 11 -7 45 -20 75 -28 86 -25 210 -67 256 -88 24 -10 52 -19 63 -19
12 0 40 -9 63 -19 23 -11 60 -23 82 -27 21 -4 57 -15 80 -25 22 -9 60 -20 85
-24 25 -4 56 -13 70 -20 14 -6 86 -27 160 -45 74 -18 158 -38 185 -45 28 -7
86 -20 130 -30 44 -9 118 -25 165 -35 47 -10 112 -24 145 -29 33 -6 81 -15
106 -20 26 -6 69 -13 95 -16 27 -3 63 -10 79 -15 17 -5 86 -16 155 -24 69 -8
148 -18 175 -22 28 -3 68 -8 90 -9 22 -2 112 -11 200 -19 448 -44 1401 -42
1805 4 47 6 105 12 130 14 297 27 460 46 615 70 50 8 137 21 195 30 58 9 137
22 175 30 39 8 117 25 175 36 106 22 139 29 240 55 30 7 78 19 105 25 28 6 70
17 95 24 25 8 65 19 90 25 25 7 66 19 91 26 26 8 56 15 68 15 12 0 35 7 51 15
16 8 53 20 82 26 29 6 58 15 63 20 6 4 31 11 55 15 25 4 54 13 65 20 11 6 35
15 53 19 18 4 45 13 60 21 15 8 39 14 53 14 15 0 32 6 38 14 7 8 31 18 54 22
23 3 58 15 77 25 19 11 47 19 61 19 15 0 32 6 38 14 7 8 27 18 44 21 18 4 46
13 62 19 17 7 55 23 85 36 30 12 78 30 106 40 28 10 60 22 70 27 69 35 110 53
118 53 5 0 32 11 60 24 215 102 268 126 275 126 5 0 19 8 32 18 13 10 43 24
65 30 23 7 47 19 54 27 7 8 18 15 25 15 6 0 50 20 96 45 46 25 95 49 109 55
14 5 32 14 40 20 18 11 120 66 172 92 20 10 39 22 43 27 3 5 22 15 43 22 20 6
39 15 42 19 3 4 25 18 50 32 80 45 124 72 155 93 17 12 45 28 63 35 17 7 32
16 32 21 0 5 12 14 26 20 15 5 44 23 64 39 21 17 42 30 46 30 10 0 79 45 140
90 23 16 46 30 52 30 6 0 15 6 19 13 4 7 28 25 53 40 25 15 72 48 105 72 33
25 69 49 80 54 11 5 29 18 39 30 11 11 23 21 29 21 5 0 49 32 97 70 48 39 92
70 98 70 5 0 15 7 22 15 7 9 49 43 94 77 45 33 86 66 91 72 6 6 34 29 63 51
28 21 52 43 52 47 0 4 7 8 15 8 7 0 18 6 22 13 4 7 46 44 93 82 46 39 99 84
117 100 18 17 67 62 110 100 259 234 609 584 753 754 25 30 60 70 79 90 18 20
66 74 105 121 39 46 78 92 86 101 8 9 31 35 50 58 19 24 52 62 73 85 20 24 37
48 37 55 0 6 4 11 9 11 8 0 61 65 102 127 9 13 28 38 43 56 54 65 106 137 106
145 0 5 12 19 26 33 14 13 33 38 41 54 9 17 19 32 23 35 9 6 100 138 100 145
0 3 7 13 16 22 14 17 30 40 132 203 23 36 48 73 56 82 9 10 18 29 22 43 3 14
12 29 19 33 11 6 27 33 84 141 7 14 21 35 31 46 9 11 27 40 39 65 36 72 59
114 70 126 5 6 18 29 29 50 11 21 34 66 52 99 18 33 42 78 52 100 10 22 22 47
27 55 4 8 12 24 18 35 5 11 17 34 26 50 9 17 21 41 28 55 20 46 47 104 82 180
47 101 73 160 81 188 4 12 11 22 16 22 5 0 11 15 15 32 4 18 13 42 20 54 8 12
17 37 20 57 4 20 13 38 20 41 7 2 16 20 20 38 4 18 16 49 26 68 11 19 19 42
19 50 0 8 7 24 15 34 8 11 15 29 15 41 0 11 6 29 13 40 8 11 17 35 21 54 3 19
13 42 21 50 7 9 18 34 24 56 14 54 88 266 101 287 5 10 10 29 10 44 0 14 6 38
14 52 17 32 69 198 122 392 9 30 22 71 29 90 8 19 19 61 25 94 5 32 14 64 19
70 5 6 13 36 17 66 4 30 13 64 19 75 7 11 16 43 20 70 6 47 14 79 50 208 8 30
15 65 15 79 0 13 9 58 20 99 22 80 59 288 60 330 0 15 7 49 15 75 8 27 22 105
30 174 8 69 19 152 24 185 17 110 41 329 51 457 5 70 14 157 20 195 5 37 14
223 20 413 6 190 12 379 13 420 2 41 0 95 -4 120 -4 25 -10 170 -14 324 -5
247 -19 451 -55 771 -6 50 -15 128 -20 175 -5 47 -14 117 -20 155 -6 39 -18
124 -25 190 -21 180 -44 335 -50 345 -3 6 -13 54 -20 107 -8 54 -24 145 -36
203 -11 58 -26 139 -34 180 -7 41 -18 89 -24 105 -5 17 -14 59 -19 95 -5 36
-14 79 -20 95 -6 17 -22 80 -36 140 -42 175 -91 358 -104 382 -7 12 -12 30
-12 40 0 21 -55 204 -76 251 -7 18 -14 43 -14 55 0 13 -4 27 -9 32 -4 6 -14
33 -20 60 -7 28 -19 66 -26 85 -7 19 -25 73 -40 120 -14 47 -29 92 -32 100
-26 65 -55 149 -60 170 -3 14 -10 30 -15 36 -4 6 -19 43 -33 82 -14 39 -35 95
-48 124 -13 29 -34 79 -47 111 -12 31 -26 60 -31 63 -5 3 -9 13 -9 22 0 10 -9
34 -20 55 -11 20 -20 43 -20 51 0 7 -8 24 -18 37 -11 13 -22 37 -26 53 -4 17
-15 41 -25 55 -10 14 -21 39 -25 55 -4 17 -15 41 -25 55 -10 14 -21 38 -25 53
-3 15 -13 33 -21 41 -7 8 -17 28 -21 43 -4 16 -10 34 -15 40 -5 5 -32 57 -60
115 -29 57 -55 105 -60 107 -4 2 -13 20 -20 40 -6 20 -17 43 -23 51 -6 8 -24
39 -39 70 -16 31 -37 72 -48 91 -11 19 -34 60 -50 90 -17 30 -40 73 -51 95
-12 22 -29 51 -39 64 -11 13 -19 32 -19 42 0 11 -4 19 -10 19 -5 0 -24 27 -42
61 -49 90 -60 109 -96 161 -17 26 -32 51 -32 56 0 5 -9 17 -20 27 -11 10 -20
22 -20 28 0 10 -70 122 -93 149 -8 9 -18 25 -21 36 -6 17 -16 32 -56 79 -5 7
-10 15 -10 18 0 8 -82 129 -95 140 -6 6 -18 21 -25 35 -7 13 -37 57 -66 97
-30 39 -54 75 -54 78 0 3 -9 16 -21 28 -12 12 -28 33 -37 47 -9 14 -49 67 -89
117 -40 51 -73 95 -73 97 0 3 -10 16 -22 29 -13 13 -39 45 -58 71 -19 26 -42
55 -50 65 -8 9 -41 48 -73 86 -32 39 -67 81 -79 95 -12 14 -40 48 -62 75 -51
63 -77 93 -146 169 -30 33 -68 76 -85 94 -16 19 -55 60 -85 92 -251 264 -324
340 -330 340 -3 0 -67 60 -142 133 -75 72 -164 157 -199 187 -61 53 -79 70
-153 138 -19 17 -38 32 -41 32 -2 0 -17 12 -32 28 -27 26 -133 118 -223 192
-23 19 -50 42 -59 51 -9 8 -36 31 -61 49 -25 19 -46 38 -48 42 -2 5 -10 8 -17
8 -8 0 -18 6 -22 14 -7 13 -64 59 -118 96 -12 8 -37 27 -56 43 -19 15 -52 41
-74 57 -22 16 -47 36 -56 45 -9 8 -19 15 -23 15 -6 0 -47 29 -121 84 -54 42
-122 87 -142 96 -13 5 -23 14 -23 19 0 5 -15 16 -33 25 -19 8 -44 26 -58 39
-13 14 -35 28 -49 32 -14 4 -32 15 -41 24 -15 14 -45 34 -143 95 -17 10 -41
27 -55 37 -13 10 -29 19 -36 19 -6 0 -22 11 -35 25 -13 14 -29 25 -36 25 -6 0
-34 15 -61 34 -26 18 -58 36 -69 40 -12 4 -29 15 -39 26 -10 11 -26 20 -35 20
-10 0 -23 7 -30 15 -7 9 -29 23 -49 32 -20 9 -50 27 -67 40 -17 13 -37 23 -44
23 -11 0 -42 18 -134 76 -18 11 -45 24 -61 28 -16 4 -35 15 -41 25 -7 10 -30
23 -51 29 -21 6 -54 23 -73 37 -18 14 -41 25 -49 25 -9 0 -27 9 -41 20 -14 11
-30 20 -36 20 -6 0 -22 8 -35 18 -13 11 -37 22 -54 26 -16 4 -44 18 -62 32
-17 13 -37 24 -44 24 -12 0 -85 31 -129 56 -25 13 -43 22 -150 71 -106 47
-145 66 -180 83 -19 10 -51 21 -70 25 -19 4 -46 16 -59 26 -13 11 -31 19 -40
19 -9 0 -47 16 -86 35 -38 19 -79 35 -90 35 -11 0 -34 9 -52 19 -17 11 -62 31
-100 45 -161 58 -200 73 -228 88 -16 8 -52 21 -80 27 -27 7 -55 17 -62 22 -6
6 -40 17 -74 25 -35 8 -68 19 -74 24 -6 5 -30 14 -53 19 -23 6 -60 16 -83 21
-22 6 -50 17 -62 24 -12 8 -42 17 -67 21 -25 4 -54 13 -65 19 -11 7 -40 16
-64 20 -24 3 -55 13 -70 20 -14 7 -48 17 -76 21 -27 4 -55 11 -60 15 -9 8 -85
30 -225 65 -30 8 -86 23 -125 34 -179 50 -302 81 -320 81 -11 0 -51 9 -90 19
-139 38 -195 51 -226 51 -16 0 -40 5 -51 11 -11 6 -59 17 -107 25 -47 9 -122
22 -166 30 -82 16 -157 27 -280 44 -38 6 -104 17 -145 25 -41 8 -104 14 -140
15 -36 0 -90 7 -120 15 -30 8 -125 19 -210 25 -85 5 -195 14 -245 20 -210 23
-372 30 -731 35 -170 2 -349 0 -399 -5 -49 -5 -211 -12 -360 -15 -148 -4 -304
-11 -345 -16 -41 -5 -136 -14 -210 -19 -271 -20 -732 -67 -870 -90 -36 -5
-101 -15 -145 -21 -44 -5 -111 -15 -150 -20 -38 -5 -101 -14 -140 -19 -38 -5
-99 -14 -135 -20 -36 -6 -100 -15 -142 -20 -42 -5 -85 -13 -95 -18 -10 -6 -57
-15 -103 -22 -47 -6 -107 -17 -135 -25 -27 -8 -75 -17 -105 -21 -30 -3 -66
-11 -80 -17 -14 -5 -45 -14 -70 -18 -117 -21 -206 -42 -211 -50 -3 -5 -27 -12
-55 -15 -27 -4 -61 -13 -76 -20 -15 -8 -37 -14 -50 -14 -13 0 -45 -8 -73 -19
-27 -10 -77 -24 -110 -31 -33 -7 -74 -19 -92 -26 -17 -8 -40 -14 -52 -14 -12
0 -38 -9 -58 -20 -21 -11 -52 -20 -69 -20 -17 0 -37 -7 -44 -15 -7 -8 -21 -15
-31 -15 -10 0 -33 -6 -51 -14 -39 -17 -111 -41 -188 -62 -30 -9 -60 -20 -65
-24 -6 -5 -46 -21 -90 -36 -44 -15 -85 -31 -91 -35 -5 -5 -35 -15 -66 -23 -30
-8 -73 -23 -94 -34 -22 -10 -52 -22 -69 -26 -16 -4 -43 -13 -60 -20 -91 -42
-233 -96 -251 -96 -11 0 -29 -9 -38 -19 -10 -11 -50 -29 -89 -41 -40 -12 -79
-28 -88 -36 -9 -8 -43 -24 -75 -35 -32 -11 -66 -27 -74 -34 -8 -7 -28 -17 -45
-20 -16 -4 -61 -24 -100 -45 -38 -21 -81 -41 -95 -45 -14 -4 -36 -15 -50 -24
-14 -10 -63 -34 -109 -55 -46 -21 -91 -44 -98 -52 -8 -8 -21 -14 -28 -14 -8 0
-67 -28 -132 -61 -65 -34 -136 -71 -158 -81 -22 -11 -47 -26 -55 -33 -8 -7
-26 -16 -40 -20 -14 -4 -38 -18 -55 -31 -16 -12 -42 -25 -57 -29 -14 -4 -34
-15 -43 -26 -10 -10 -34 -23 -54 -30 -20 -6 -49 -22 -66 -34 -16 -12 -40 -25
-52 -29 -11 -4 -27 -13 -33 -21 -7 -8 -21 -15 -31 -15 -10 0 -22 -6 -26 -14
-4 -8 -30 -26 -58 -41 -51 -28 -98 -56 -242 -150 -46 -29 -96 -58 -113 -65
-16 -7 -30 -16 -30 -21 0 -5 -7 -9 -15 -9 -7 0 -18 -6 -22 -13 -10 -15 -89
-67 -103 -67 -5 0 -10 -5 -10 -11 0 -5 -15 -16 -34 -24 -18 -8 -36 -21 -39
-30 -4 -8 -13 -15 -22 -15 -8 0 -15 -4 -15 -9 0 -5 -10 -13 -22 -17 -13 -3
-31 -13 -41 -22 -9 -8 -26 -20 -36 -26 -49 -28 -131 -88 -131 -97 0 -5 -4 -9
-10 -9 -13 0 -100 -62 -100 -72 0 -4 -7 -8 -15 -8 -9 0 -18 -7 -21 -15 -4 -8
-12 -15 -19 -15 -6 0 -20 -9 -30 -20 -10 -11 -38 -31 -61 -45 -24 -14 -44 -29
-44 -33 0 -5 -21 -21 -47 -38 -25 -16 -51 -34 -57 -39 -6 -6 -47 -39 -91 -73
-44 -33 -92 -71 -106 -84 -14 -13 -54 -45 -88 -73 -35 -27 -81 -67 -104 -87
-23 -21 -46 -38 -52 -38 -5 0 -15 -8 -21 -18 -6 -10 -45 -44 -85 -77 -41 -33
-83 -69 -94 -80 -11 -11 -45 -40 -74 -65 -30 -25 -63 -54 -75 -65 -11 -11 -63
-58 -116 -105 -225 -201 -662 -636 -830 -825 -68 -77 -131 -147 -139 -156 -9
-9 -36 -40 -61 -69 -25 -30 -57 -67 -72 -84 -66 -77 -115 -136 -143 -170 -58
-73 -97 -121 -118 -146 -41 -46 -107 -133 -107 -140 0 -3 -16 -21 -35 -40 -19
-19 -35 -39 -35 -43 0 -4 -18 -31 -40 -60 -22 -29 -48 -62 -57 -75 -10 -13
-23 -29 -28 -35 -32 -37 -145 -196 -145 -203 0 -5 -8 -17 -17 -26 -24 -22 -43
-46 -43 -53 0 -5 -98 -147 -138 -200 -30 -41 -92 -137 -92 -144 0 -4 -16 -28
-35 -52 -19 -24 -35 -49 -35 -55 0 -6 -11 -21 -25 -34 -14 -13 -25 -31 -25
-41 0 -9 -6 -22 -14 -28 -16 -13 -96 -143 -96 -155 0 -4 -11 -22 -24 -39 -13
-18 -36 -52 -50 -77 -13 -25 -39 -70 -56 -100 -17 -30 -42 -73 -56 -95 -13
-22 -32 -56 -40 -75 -9 -19 -25 -46 -36 -60 -11 -14 -26 -38 -34 -55 -7 -16
-17 -37 -22 -45 -12 -21 -32 -59 -88 -170 -27 -52 -57 -106 -66 -119 -10 -13
-18 -30 -18 -38 0 -8 -8 -27 -19 -41 -10 -15 -22 -38 -26 -52 -4 -14 -17 -38
-30 -55 -12 -16 -26 -41 -30 -54 -4 -14 -16 -38 -26 -55 -11 -17 -19 -38 -19
-46 0 -9 -8 -27 -17 -40 -19 -26 -123 -255 -123 -269 0 -5 -9 -19 -19 -33 -11
-13 -24 -43 -31 -67 -6 -25 -18 -54 -26 -66 -8 -12 -25 -48 -38 -81 -13 -32
-45 -110 -70 -172 -25 -63 -46 -122 -46 -131 0 -10 -9 -30 -20 -44 -11 -14
-20 -35 -20 -48 0 -12 -7 -30 -16 -40 -9 -10 -19 -32 -24 -51 -12 -50 -30 -99
-50 -138 -10 -19 -21 -51 -25 -70 -4 -19 -13 -44 -20 -55 -7 -12 -25 -59 -40
-105 -15 -47 -33 -97 -41 -112 -8 -14 -14 -34 -14 -43 0 -9 -7 -31 -14 -48
-24 -51 -56 -150 -56 -170 0 -11 -9 -34 -19 -51 -10 -17 -22 -51 -26 -75 -4
-24 -14 -59 -21 -77 -8 -18 -14 -45 -14 -59 0 -15 -7 -33 -15 -41 -8 -9 -15
-26 -15 -38 0 -13 -14 -68 -31 -122 -47 -153 -100 -352 -115 -429 -7 -38 -22
-99 -33 -134 -12 -35 -21 -73 -21 -84 0 -11 -4 -36 -10 -56 -30 -116 -51 -215
-59 -279 -5 -40 -14 -79 -21 -87 -6 -8 -15 -51 -20 -97 -5 -46 -16 -112 -24
-148 -9 -36 -23 -114 -31 -175 -9 -60 -22 -139 -31 -173 -8 -35 -19 -116 -25
-180 -6 -65 -15 -125 -20 -135 -5 -10 -14 -71 -19 -135 -6 -64 -15 -157 -20
-207 -6 -49 -12 -126 -15 -169 -3 -44 -10 -85 -15 -91 -33 -40 -62 -1632 -35
-1940 7 -79 26 -402 29 -485 10 -256 18 -401 27 -440 5 -25 18 -130 29 -235
29 -283 56 -486 68 -520 6 -16 16 -73 22 -125 15 -134 28 -214 44 -273 8 -29
18 -79 21 -112 4 -33 11 -73 16 -90 5 -16 18 -79 30 -140 11 -60 25 -128 29
-150 5 -22 16 -75 24 -117 8 -43 22 -102 30 -130 15 -52 46 -179 80 -328 10
-41 24 -91 31 -110 8 -19 19 -62 26 -95 6 -33 15 -64 19 -70 4 -5 18 -50 30
-100 13 -49 27 -95 32 -101 4 -6 13 -38 19 -70 6 -32 19 -75 30 -96 10 -20 19
-50 19 -65 0 -15 7 -40 14 -55 8 -16 24 -63 36 -105 12 -43 25 -82 29 -88 5
-5 14 -35 20 -65 7 -30 18 -64 25 -75 7 -11 16 -36 20 -55 4 -19 15 -55 26
-80 17 -41 26 -68 75 -215 9 -27 24 -68 34 -90 25 -56 61 -149 61 -158 0 -5
11 -32 24 -60 13 -29 27 -63 31 -77 4 -14 17 -47 30 -75 12 -27 32 -71 44 -96
12 -25 21 -53 21 -61 0 -9 7 -21 15 -28 8 -7 15 -19 15 -27 0 -8 6 -27 14 -41
8 -15 31 -65 51 -112 20 -47 53 -121 74 -165 21 -44 44 -97 50 -117 7 -20 19
-42 27 -48 7 -7 14 -18 14 -24 0 -7 24 -62 53 -122 30 -60 59 -120 65 -134 7
-14 16 -32 21 -40 5 -8 22 -42 38 -75 15 -33 31 -62 34 -65 3 -3 20 -34 38
-70 54 -107 135 -257 147 -271 6 -8 15 -25 19 -39 4 -14 18 -38 30 -55 13 -16
26 -41 30 -55 4 -14 15 -34 25 -45 10 -11 24 -31 30 -45 18 -39 42 -81 78
-132 17 -26 32 -49 32 -53 0 -3 16 -31 35 -61 19 -30 35 -58 35 -63 0 -5 7
-14 16 -21 8 -8 22 -27 29 -44 8 -17 37 -66 65 -109 27 -43 50 -82 50 -85 0
-4 14 -22 30 -40 16 -19 32 -44 36 -55 4 -12 13 -29 20 -37 8 -8 33 -44 55
-80 23 -36 51 -78 63 -95 11 -16 45 -66 74 -110 30 -44 59 -85 65 -90 7 -6 19
-22 27 -36 8 -14 33 -52 55 -84 22 -32 45 -65 50 -75 6 -9 18 -25 28 -35 11
-10 29 -34 43 -54 44 -67 87 -126 99 -136 7 -5 27 -31 45 -57 18 -27 37 -48
42 -48 4 0 8 -6 8 -14 0 -7 7 -19 15 -26 9 -7 43 -49 77 -94 34 -45 72 -92 85
-106 57 -63 93 -108 93 -115 0 -4 10 -18 23 -30 12 -13 38 -42 58 -66 91 -110
341 -394 469 -533 82 -89 665 -670 744 -741 43 -38 94 -86 114 -105 20 -19 77
-71 126 -115 49 -44 101 -91 116 -105 15 -14 51 -45 81 -70 30 -25 77 -66 105
-92 28 -27 54 -48 57 -48 4 0 22 -15 42 -32 19 -18 58 -51 86 -73 28 -22 67
-55 86 -72 20 -18 39 -33 44 -33 5 0 16 -8 26 -19 22 -22 205 -168 253 -201
19 -13 37 -27 40 -31 7 -10 180 -139 186 -139 3 0 19 -14 37 -30 18 -17 42
-33 54 -36 12 -3 24 -11 26 -18 3 -7 37 -34 75 -60 39 -26 76 -54 83 -62 6 -8
17 -14 23 -14 7 0 23 -11 36 -25 13 -14 28 -25 35 -25 6 0 24 -11 40 -25 39
-32 104 -75 114 -75 4 0 16 -9 27 -21 10 -12 40 -32 65 -44 25 -13 51 -31 58
-39 8 -9 17 -16 22 -16 6 0 159 -98 251 -161 15 -11 32 -19 37 -19 5 0 22 -11
38 -24 15 -12 55 -38 88 -56 33 -18 67 -38 75 -45 8 -7 34 -22 56 -33 23 -12
54 -32 70 -45 16 -13 40 -28 54 -32 14 -4 27 -11 30 -15 3 -3 50 -32 105 -63
55 -31 113 -64 130 -74 16 -10 38 -22 49 -28 11 -5 38 -20 60 -32 23 -12 73
-37 113 -57 39 -20 74 -40 78 -45 3 -5 31 -19 63 -31 31 -12 65 -29 74 -37 17
-15 124 -63 141 -63 4 0 16 -9 26 -19 11 -11 45 -28 76 -37 32 -10 59 -24 62
-31 3 -6 27 -19 54 -28 27 -9 51 -21 54 -26 4 -5 13 -9 22 -9 9 0 24 -6 32
-14 9 -8 41 -24 71 -36 30 -12 62 -27 70 -34 8 -7 50 -25 92 -40 42 -15 82
-34 88 -41 6 -7 33 -19 61 -25 27 -7 51 -16 54 -21 8 -11 60 -35 113 -50 23
-7 42 -15 42 -19 0 -10 47 -30 69 -30 11 0 43 -13 73 -28 29 -16 75 -34 101
-40 26 -7 62 -21 81 -32 19 -10 52 -22 73 -26 21 -4 58 -17 83 -30 25 -13 54
-24 65 -24 11 0 40 -11 65 -24 25 -12 67 -28 93 -35 27 -6 59 -18 70 -25 12
-7 44 -19 70 -25 27 -7 59 -18 70 -26 12 -7 40 -17 62 -21 22 -4 56 -15 75
-25 19 -10 58 -23 85 -30 28 -6 66 -19 85 -29 19 -10 52 -20 74 -23 21 -4 62
-15 90 -26 62 -24 129 -46 216 -71 36 -10 97 -27 135 -39 39 -11 90 -25 115
-32 25 -6 74 -20 110 -30 69 -19 450 -112 610 -148 52 -12 120 -28 150 -37 30
-8 125 -28 210 -44 85 -16 187 -37 225 -45 39 -8 102 -19 140 -25 39 -6 95
-15 125 -20 234 -42 430 -71 540 -80 63 -6 126 -15 140 -20 23 -9 178 -28 290
-36 225 -17 335 -26 390 -35 136 -21 349 -39 455 -39 61 0 153 -1 205 -3 191
-7 756 -10 800 -4 25 4 185 9 357 12 364 6 499 12 568 26 28 5 156 16 285 24
129 9 264 19 300 24 36 5 148 18 250 30 349 39 573 66 660 81 36 6 97 15 135
20 39 5 106 17 150 25 44 8 107 20 140 25 33 5 80 15 105 20 47 12 119 25 210
40 30 5 73 13 95 19 22 6 94 22 160 36 66 15 165 38 220 52 55 14 124 29 154
34 29 6 61 13 70 18 9 4 61 18 116 31 55 12 145 36 200 52 55 16 125 36 155
44 30 9 69 20 85 26 17 5 53 16 80 23 28 7 68 20 90 29 22 8 49 15 61 16 11 0
29 7 40 15 10 8 30 15 44 15 14 0 38 7 53 15 15 8 45 17 65 21 20 3 47 12 59
20 12 8 30 14 40 14 10 0 35 9 56 20 20 11 46 20 57 20 12 0 38 9 60 20 22 11
50 20 63 20 14 0 30 6 36 14 6 7 32 16 58 20 26 3 54 13 64 21 9 9 34 19 55
22 22 3 46 12 55 19 8 8 31 17 50 20 19 4 43 12 54 19 11 6 37 18 58 25 22 7
51 18 65 26 15 8 33 14 40 14 7 0 35 11 62 25 27 14 55 25 61 25 11 0 42 13
144 61 22 10 54 21 70 25 17 4 37 12 45 19 8 7 31 16 50 20 19 4 42 13 50 20
8 7 26 16 40 20 14 4 48 17 75 30 28 13 75 34 105 48 30 14 65 28 77 32 11 3
27 12 33 20 7 8 20 15 29 15 9 0 32 8 51 19 19 10 52 24 73 30 20 7 37 16 37
21 0 5 14 12 32 15 17 4 53 20 78 36 26 16 54 29 62 29 9 0 26 8 39 19 13 10
38 22 56 25 17 4 34 13 36 21 3 7 21 16 39 20 18 4 35 11 38 14 9 12 81 51 94
51 7 0 24 8 37 19 13 10 35 22 49 26 14 4 32 13 40 20 8 7 26 16 39 20 14 4
46 21 72 36 25 16 53 29 61 29 8 0 23 8 34 19 11 10 37 24 57 30 20 7 37 16
37 19 0 4 15 13 33 21 17 8 46 24 62 36 17 12 42 25 57 29 15 3 43 16 62 29
91 58 125 77 136 77 6 0 25 10 42 21 16 12 48 31 71 44 77 41 122 67 137 79 8
7 26 18 40 24 61 30 145 81 148 91 2 6 11 11 19 11 8 0 37 16 63 35 26 19 51
35 56 35 4 0 24 11 43 23 169 112 208 137 215 137 4 0 28 16 53 35 25 19 52
35 59 35 7 0 18 8 23 18 5 10 32 29 60 42 28 13 51 27 51 31 0 5 14 16 32 25
18 9 38 22 45 28 23 21 52 41 106 74 16 9 41 27 55 40 15 13 41 30 57 39 17 9
43 29 59 44 17 16 35 29 41 29 6 0 22 11 35 25 13 14 28 25 34 25 6 0 29 16
50 35 22 19 43 35 47 35 5 0 21 11 36 25 45 40 52 45 59 45 6 0 39 25 111 87
21 18 44 33 51 33 6 0 12 4 12 8 0 5 21 24 48 42 26 19 63 49 82 67 19 18 38
33 41 33 4 0 18 9 31 20 12 11 57 47 98 81 41 34 77 66 78 70 2 5 8 9 14 9 6
0 34 21 62 46 28 25 66 59 84 75 18 16 35 29 37 29 5 0 19 12 131 114 28 25
53 46 56 46 3 0 31 24 61 53 30 28 104 95 163 147 108 95 147 131 347 325 59
58 112 105 117 105 6 0 10 4 10 8 0 4 60 69 133 144 72 74 146 151 162 169
169 191 209 236 221 245 8 6 14 15 14 20 0 5 16 24 35 41 19 18 35 35 35 38 0
2 13 17 28 32 26 25 80 86 226 256 63 74 78 91 121 142 22 26 49 58 60 70 11
13 27 33 35 45 8 11 32 40 53 63 21 23 50 60 65 82 15 22 32 45 38 50 6 6 47
55 90 110 43 54 86 107 94 116 8 9 35 44 60 78 24 33 48 61 52 61 3 0 9 8 12
18 3 9 22 35 41 57 19 22 37 48 41 58 3 9 9 17 14 17 5 0 17 14 26 32 9 17 29
45 45 62 16 17 29 35 29 40 0 6 18 31 40 57 22 26 40 52 40 58 0 5 6 14 14 18
12 7 51 59 96 128 55 85 92 135 101 135 5 0 9 5 9 11 0 6 15 31 33 57 17 26
37 54 42 63 20 33 105 155 124 179 11 14 21 30 21 36 0 6 9 19 20 29 11 10 23
27 26 39 4 11 17 35 30 52 13 17 24 35 24 41 0 6 10 21 23 35 12 13 30 40 40
59 10 18 35 61 57 94 22 33 46 74 55 90 34 68 79 140 90 147 7 4 16 20 20 35
3 15 19 43 35 63 16 20 32 49 36 64 3 15 12 30 19 33 7 2 16 19 19 38 4 18 13
36 21 39 8 3 15 11 15 18 0 17 37 88 60 113 10 11 21 35 25 52 3 18 10 33 14
33 4 0 18 23 31 50 13 28 29 55 36 61 7 6 16 25 19 42 4 18 13 39 20 47 7 8
43 76 79 150 37 74 71 142 76 150 28 47 130 268 130 281 0 9 9 24 20 34 11 10
20 23 20 29 0 15 44 122 57 138 6 7 14 24 18 38 7 24 32 79 61 130 7 14 14 35
14 46 0 12 7 27 15 34 8 7 15 19 15 27 0 8 11 35 25 61 14 26 25 54 25 62 0 8
7 24 15 34 8 11 15 27 15 35 1 9 9 34 20 56 11 22 19 47 20 56 0 9 7 22 15 29
8 7 17 28 21 49 4 20 12 43 20 51 7 8 18 36 24 63 7 26 16 50 21 53 5 3 9 12
9 21 0 8 6 29 14 46 21 49 64 169 71 197 4 14 10 34 15 45 37 85 50 121 56
153 4 20 13 46 20 57 8 11 14 26 14 33 0 8 6 28 14 45 8 18 17 48 20 68 4 21
13 42 20 48 7 6 16 30 20 52 4 23 13 51 21 62 8 12 15 33 15 47 0 14 6 37 14
51 7 14 16 43 20 65 4 21 13 48 20 59 7 11 18 45 25 75 7 30 16 64 21 75 21
46 50 141 50 162 0 13 9 40 20 60 11 21 20 49 20 63 1 14 9 50 20 80 11 30 19
65 20 78 0 13 6 35 14 50 8 15 17 46 21 67 3 22 12 63 20 90 28 99 55 216 55
241 0 14 6 35 12 47 11 20 25 75 62 257 7 36 18 85 24 110 43 183 52 227 52
244 0 10 7 48 15 85 29 128 47 217 60 296 7 44 20 121 29 170 35 185 46 254
46 283 0 16 9 65 20 108 11 44 20 110 20 147 0 38 6 80 14 95 8 16 25 136 40
297 15 149 33 331 41 405 39 360 66 993 66 1545 0 334 -12 937 -21 1050 -5 66
-16 228 -24 360 -20 305 -43 571 -61 705 -8 58 -19 159 -25 225 -12 136 -24
223 -46 345 -9 47 -18 123 -21 170 -3 47 -11 96 -18 110 -7 14 -15 55 -19 92
-10 101 -17 151 -27 176 -5 13 -9 38 -9 55 0 18 -9 61 -20 97 -11 36 -20 86
-20 112 0 26 -6 67 -14 90 -8 24 -20 72 -26 108 -11 66 -26 138 -56 265 -16
70 -24 104 -45 205 -6 30 -19 84 -29 120 -10 36 -23 88 -28 115 -13 63 -35
156 -51 215 -34 125 -63 229 -72 260 -6 19 -19 67 -29 105 -10 39 -34 124 -54
190 -20 66 -41 136 -46 155 -9 38 -32 107 -61 185 -11 28 -19 60 -19 71 0 11
-4 24 -9 30 -4 5 -14 32 -21 59 -7 28 -19 59 -27 70 -7 11 -13 29 -13 40 -1
11 -9 38 -20 60 -11 22 -19 49 -20 60 0 11 -9 37 -20 58 -11 20 -20 46 -20 57
0 12 -7 35 -16 52 -9 17 -25 58 -36 92 -11 34 -28 79 -37 101 -10 22 -26 63
-35 90 -43 122 -56 156 -70 187 -8 18 -24 58 -34 88 -39 108 -72 191 -86 213
-8 12 -18 39 -21 60 -4 20 -11 37 -15 37 -5 0 -16 22 -25 50 -9 27 -21 52 -26
55 -5 4 -9 14 -9 23 0 9 -7 31 -16 47 -9 17 -32 68 -51 115 -19 47 -46 110
-60 140 -14 30 -33 73 -43 95 -21 47 -56 124 -100 220 -45 97 -208 434 -224
465 -8 14 -47 90 -86 170 -40 80 -76 146 -81 148 -4 2 -13 20 -20 40 -6 20
-20 49 -31 64 -10 15 -25 43 -33 62 -9 20 -19 36 -24 36 -5 0 -12 11 -15 25
-3 13 -17 41 -31 61 -14 20 -25 41 -25 46 0 5 -13 29 -30 53 -16 24 -30 51
-30 59 0 9 -8 24 -17 34 -10 10 -26 33 -35 52 -44 87 -84 155 -138 236 -15 23
-31 52 -35 65 -4 13 -16 32 -26 42 -11 10 -19 24 -19 31 0 7 -13 30 -30 52
-16 21 -30 43 -30 48 0 5 -11 24 -25 42 -14 18 -25 36 -25 40 0 3 -16 29 -35
55 -19 27 -35 52 -35 55 0 4 -15 30 -34 58 -18 28 -61 94 -94 146 -34 52 -68
104 -77 115 -25 32 -105 154 -105 160 0 3 -8 14 -17 24 -10 11 -34 43 -53 71
-19 28 -52 75 -72 103 -20 29 -47 67 -60 85 -13 18 -40 55 -60 82 -21 27 -38
54 -38 59 0 6 -6 14 -14 18 -7 4 -26 28 -41 53 -15 25 -34 49 -41 53 -8 4 -14
13 -14 18 0 6 -13 24 -29 41 -17 18 -36 43 -43 57 -7 15 -16 28 -19 31 -4 3
-36 43 -73 90 -36 47 -72 92 -79 100 -7 8 -33 41 -57 73 -25 32 -60 74 -77 93
-18 20 -33 39 -33 42 0 4 -15 23 -33 43 -17 20 -50 58 -72 84 -22 27 -50 59
-62 72 -13 13 -23 27 -23 30 0 5 -20 29 -116 136 -19 21 -34 41 -34 44 0 3
-16 20 -35 39 -19 18 -35 35 -35 39 0 3 -21 27 -46 53 -26 26 -63 67 -83 91
-20 25 -51 60 -68 78 -18 18 -33 34 -33 36 0 18 -619 651 -828 847 -68 63
-152 142 -186 175 -55 52 -195 181 -261 240 -29 25 -192 173 -220 200 -12 11
-57 49 -101 84 -43 36 -86 72 -95 80 -9 9 -34 30 -55 46 -20 17 -51 42 -68 57
-17 14 -53 45 -81 67 -27 23 -57 47 -65 54 -8 8 -33 27 -55 43 -41 30 -51 38
-82 64 -9 8 -42 34 -73 57 -30 22 -64 51 -76 62 -12 12 -26 21 -31 21 -6 0
-13 7 -17 15 -3 8 -10 15 -16 15 -5 0 -18 7 -27 16 -27 23 -162 125 -210 158
-24 16 -43 32 -43 37 0 4 -9 11 -20 14 -11 4 -40 23 -65 43 -24 20 -67 53 -95
72 -28 19 -83 59 -123 88 -39 30 -82 58 -94 63 -13 5 -23 13 -23 18 0 5 -13
14 -29 21 -16 6 -42 25 -58 41 -15 15 -32 29 -37 29 -5 0 -29 15 -55 33 -25
18 -53 36 -61 40 -8 4 -42 27 -75 52 -33 25 -71 50 -85 56 -14 6 -34 18 -45
28 -11 10 -41 30 -67 45 -27 15 -48 31 -48 36 0 6 -6 10 -14 10 -8 0 -37 16
-65 35 -28 19 -55 35 -60 35 -5 0 -19 11 -32 25 -13 13 -31 25 -40 25 -9 0
-23 7 -30 17 -8 9 -33 24 -55 35 -23 10 -47 25 -54 33 -7 8 -31 24 -54 34 -22
10 -50 28 -60 40 -11 11 -26 21 -34 21 -8 0 -45 19 -81 43 -36 23 -79 49 -96
57 -16 8 -39 22 -50 31 -11 9 -37 22 -57 29 -21 6 -38 15 -38 19 0 4 -24 20
-54 34 -30 15 -58 32 -61 37 -3 6 -15 10 -25 10 -10 0 -31 11 -46 25 -15 14
-35 25 -44 25 -9 0 -35 13 -57 29 -22 16 -50 32 -64 36 -13 4 -35 16 -48 26
-13 11 -29 19 -36 19 -7 0 -23 8 -36 18 -13 10 -40 24 -59 32 -19 7 -47 21
-61 31 -14 10 -38 21 -53 25 -15 3 -30 13 -33 20 -2 7 -27 20 -54 29 -27 9
-51 20 -54 24 -2 5 -44 27 -92 51 -49 23 -95 48 -103 55 -8 7 -28 15 -44 19
-17 4 -41 15 -55 25 -14 10 -42 24 -62 30 -21 7 -47 21 -60 31 -12 11 -28 20
-36 20 -8 0 -31 9 -51 20 -20 10 -82 40 -137 65 -55 26 -127 60 -160 76 -33
16 -67 29 -76 29 -9 0 -24 9 -34 20 -10 11 -30 20 -45 20 -15 0 -38 8 -51 19
-13 10 -58 30 -99 45 -41 15 -94 38 -117 52 -23 13 -48 24 -55 24 -8 0 -32 9
-53 20 -22 12 -67 30 -100 41 -33 12 -73 29 -90 39 -16 10 -45 21 -64 25 -18
4 -48 15 -65 26 -17 10 -55 23 -83 29 -28 6 -62 20 -74 31 -12 10 -33 19 -46
19 -13 0 -43 8 -66 19 -23 10 -57 22 -76 26 -19 4 -49 15 -66 25 -18 10 -60
25 -94 34 -34 9 -81 25 -106 36 -24 11 -50 20 -57 20 -7 1 -65 19 -128 41 -63
23 -141 47 -173 54 -32 7 -68 20 -80 28 -12 8 -42 18 -67 22 -25 4 -54 13 -65
20 -11 7 -40 16 -65 20 -25 4 -64 16 -86 26 -23 10 -63 23 -90 29 -27 6 -82
22 -122 35 -40 14 -85 25 -100 25 -15 0 -36 6 -47 14 -20 14 -75 29 -175 48
-30 6 -60 14 -66 19 -6 5 -31 13 -55 18 -45 10 -69 16 -194 47 -38 9 -104 25
-145 34 -41 9 -82 19 -90 22 -8 4 -40 11 -70 17 -30 6 -86 18 -125 27 -38 9
-88 19 -110 24 -125 23 -172 33 -190 40 -11 4 -72 18 -135 30 -63 12 -149 29
-190 37 -41 8 -100 18 -131 23 -31 4 -71 12 -90 18 -19 5 -88 18 -154 27 -66
9 -133 21 -148 26 -16 5 -59 11 -95 14 -37 4 -96 12 -132 20 -36 8 -103 19
-150 26 -47 6 -114 15 -150 20 -36 5 -105 14 -155 19 -49 6 -126 15 -170 20
-88 11 -223 25 -385 40 -58 6 -134 15 -170 20 -36 5 -173 16 -306 23 -132 7
-245 16 -250 19 -5 4 -131 9 -279 13 -541 13 -508 11 -700 44 -59 11 -488 14
-512 4z"/>
</g>
</svg>
